<svg width="77" height="77" viewBox="0 0 77 77" fill="none" xmlns="http://www.w3.org/2000/svg">
<g id="ri:lock-2-fill">
<path id="Vector" d="M57.75 25.6668H64.1667C65.0176 25.6668 65.8336 26.0048 66.4353 26.6065C67.037 27.2082 67.375 28.0243 67.375 28.8752V67.3752C67.375 68.2261 67.037 69.0421 66.4353 69.6438C65.8336 70.2455 65.0176 70.5835 64.1667 70.5835H12.8333C11.9824 70.5835 11.1664 70.2455 10.5647 69.6438C9.96302 69.0421 9.625 68.2261 9.625 67.3752V28.8752C9.625 28.0243 9.96302 27.2082 10.5647 26.6065C11.1664 26.0048 11.9824 25.6668 12.8333 25.6668H19.25V22.4585C19.25 17.3531 21.2781 12.4568 24.8882 8.84669C28.4983 5.23662 33.3946 3.2085 38.5 3.2085C43.6054 3.2085 48.5017 5.23662 52.1118 8.84669C55.7219 12.4568 57.75 17.3531 57.75 22.4585V25.6668ZM35.2917 50.4737V57.7502H41.7083V50.4737C42.9316 49.7674 43.8877 48.6772 44.4282 47.3722C44.9688 46.0672 45.0636 44.6203 44.698 43.2559C44.3324 41.8915 43.5269 40.6859 42.4062 39.826C41.2856 38.9661 39.9125 38.5 38.5 38.5C37.0875 38.5 35.7144 38.9661 34.5938 39.826C33.4731 40.6859 32.6676 41.8915 32.302 43.2559C31.9364 44.6203 32.0312 46.0672 32.5718 47.3722C33.1123 48.6772 34.0684 49.7674 35.2917 50.4737ZM51.3333 25.6668V22.4585C51.3333 19.0549 49.9813 15.7907 47.5745 13.384C45.1678 10.9772 41.9036 9.62516 38.5 9.62516C35.0964 9.62516 31.8322 10.9772 29.4255 13.384C27.0187 15.7907 25.6667 19.0549 25.6667 22.4585V25.6668H51.3333Z" fill="#C3C3C3"/>
</g>
</svg>
