<svg width="56" height="70" viewBox="0 0 56 70" fill="none" xmlns="http://www.w3.org/2000/svg">
<path d="M0 3.65243C0 1.63525 1.63525 0 3.65243 0H52.3476C54.3647 0 56 1.63525 56 3.65243V66.3476C56 68.3648 54.3647 70 52.3476 70H3.65243C1.63525 70 0 68.3648 0 66.3476V3.65243Z" fill="#141625"/>
<path d="M28.5 9C17.6911 9 9 26.3801 9 40.4681C9 54.5561 17.771 60 28.5 60C39.229 60 48 54.5561 48 40.4681C48 26.3801 39.229 9 28.5 9Z" fill="#191D30"/>
<path d="M3.65243 3H52.3476V-3H3.65243V3ZM53 3.65243V66.3476H59V3.65243H53ZM52.3476 67H3.65243V73H52.3476V67ZM3 66.3476V3.65243H-3V66.3476H3ZM3.65243 67C3.2921 67 3 66.7079 3 66.3476H-3C-3 70.0216 -0.0216054 73 3.65243 73V67ZM53 66.3476C53 66.7079 52.7079 67 52.3476 67V73C56.0216 73 59 70.0216 59 66.3476H53ZM52.3476 3C52.7079 3 53 3.2921 53 3.65243H59C59 -0.0216058 56.0216 -3 52.3476 -3V3ZM3.65243 -3C-0.0216038 -3 -3 -0.021609 -3 3.65243H3C3 3.2921 3.2921 3 3.65243 3V-3Z" fill="#191D30"/>
</svg>
