<svg width="57" height="70" viewBox="0 0 57 70" fill="none" xmlns="http://www.w3.org/2000/svg">
<g id="Eggs" filter="url(#filter0_i_710_1111)">
<rect x="0.5" width="56" height="70" rx="2" fill="#1F272A"/>
<g id="Vector" filter="url(#filter1_i_710_1111)">
<path d="M29 9C18.1911 9 9.5 26.3801 9.5 40.4681C9.5 54.5561 18.271 60 29 60C39.729 60 48.5 54.5561 48.5 40.4681C48.5 26.3801 39.729 9 29 9Z" fill="#1F272A"/>
<path d="M29 9C18.1911 9 9.5 26.3801 9.5 40.4681C9.5 54.5561 18.271 60 29 60C39.729 60 48.5 54.5561 48.5 40.4681C48.5 26.3801 39.729 9 29 9Z" fill="url(#paint0_linear_710_1111)" fill-opacity="0.2"/>
</g>
</g>
<defs>
<filter id="filter0_i_710_1111" x="0.5" y="0" width="56" height="74" filterUnits="userSpaceOnUse" color-interpolation-filters="sRGB">
<feFlood flood-opacity="0" result="BackgroundImageFix"/>
<feBlend mode="normal" in="SourceGraphic" in2="BackgroundImageFix" result="shape"/>
<feColorMatrix in="SourceAlpha" type="matrix" values="0 0 0 0 0 0 0 0 0 0 0 0 0 0 0 0 0 0 127 0" result="hardAlpha"/>
<feOffset dy="4"/>
<feGaussianBlur stdDeviation="4"/>
<feComposite in2="hardAlpha" operator="arithmetic" k2="-1" k3="1"/>
<feColorMatrix type="matrix" values="0 0 0 0 0 0 0 0 0 0 0 0 0 0 0 0 0 0 0.5 0"/>
<feBlend mode="normal" in2="shape" result="effect1_innerShadow_710_1111"/>
</filter>
<filter id="filter1_i_710_1111" x="9.5" y="9" width="39" height="55" filterUnits="userSpaceOnUse" color-interpolation-filters="sRGB">
<feFlood flood-opacity="0" result="BackgroundImageFix"/>
<feBlend mode="normal" in="SourceGraphic" in2="BackgroundImageFix" result="shape"/>
<feColorMatrix in="SourceAlpha" type="matrix" values="0 0 0 0 0 0 0 0 0 0 0 0 0 0 0 0 0 0 127 0" result="hardAlpha"/>
<feOffset dy="4"/>
<feGaussianBlur stdDeviation="4"/>
<feComposite in2="hardAlpha" operator="arithmetic" k2="-1" k3="1"/>
<feColorMatrix type="matrix" values="0 0 0 0 0 0 0 0 0 0 0 0 0 0 0 0 0 0 0.5 0"/>
<feBlend mode="normal" in2="shape" result="effect1_innerShadow_710_1111"/>
</filter>
<linearGradient id="paint0_linear_710_1111" x1="32" y1="46" x2="20.5" y2="20" gradientUnits="userSpaceOnUse">
<stop/>
<stop offset="1" stop-opacity="0.01"/>
</linearGradient>
</defs>
</svg>
