<svg width="56" height="70" viewBox="0 0 56 70" fill="none" xmlns="http://www.w3.org/2000/svg">
<path d="M0 3.65243C0 1.63525 1.63525 0 3.65243 0H52.3476C54.3647 0 56 1.63525 56 3.65243V66.3476C56 68.3648 54.3647 70 52.3476 70H3.65243C1.63525 70 0 68.3648 0 66.3476V3.65243Z" fill="#141625"/>
<path d="M26.308 48.1537C21.4418 47.8748 17.5319 45.7667 15.0716 42.0955C12.4161 38.1329 11.9132 33.1838 13.7704 29.2891C14.3821 28.0062 15.0332 27.0786 16.0817 25.9964C16.631 25.4293 16.9168 25.1997 17.8034 24.6128C18.3881 24.2258 19.0113 23.8324 19.1884 23.7385L19.5104 23.5679L19.845 23.8337C20.3015 24.1962 20.7407 24.3924 21.0976 24.3932L21.3902 24.3938L21.2078 24.0342C20.7607 23.1527 21.1066 22.9939 22.2798 23.5421C22.9639 23.8619 23.353 23.9794 23.5354 23.9215C23.6427 23.8875 23.6587 23.8445 23.63 23.6676C23.611 23.5504 23.5374 23.3731 23.4665 23.2736C23.3013 23.0415 23.3025 22.8189 23.4699 22.6682C23.5891 22.5608 23.7021 22.5496 24.6111 22.5549C27.9544 22.5742 30.758 23.5555 32.8288 25.431C33.8736 26.3772 35.2787 28.3131 35.5629 29.1977C35.7214 29.6912 35.9019 29.6959 36.1598 29.2133L36.2792 28.99L36.2337 29.3652C36.2087 29.5716 36.1885 30.0922 36.1889 30.5221C36.1893 31.1524 36.2113 31.3461 36.3024 31.5226C36.6336 32.1646 36.5741 34.4952 36.1939 35.7755C36.1414 35.9524 35.9717 36.3736 35.8168 36.7115C35.3545 37.7201 35.3685 38.0059 35.8721 37.8397C35.9933 37.7997 36.1563 37.7872 36.2342 37.8119C36.3512 37.8491 36.3094 37.8751 35.9943 37.9614C35.3021 38.1509 34.7519 38.5564 34.1245 39.3393C32.6037 41.2372 30.5132 42.2672 27.6439 42.5325C26.9228 42.5992 26.7807 42.5938 26.0181 42.4713C25.5584 42.3974 24.916 42.2689 24.5904 42.1858C24.2648 42.1026 23.9883 42.0446 23.976 42.0569C23.94 42.0929 24.7475 42.5288 25.203 42.7193C25.6892 42.9228 26.3424 43.0537 26.6164 43.0027C26.8035 42.9679 26.815 42.9802 27.0789 43.4968C27.5104 44.3415 28.1115 44.9007 28.5946 44.9067C28.8652 44.9101 28.5957 45.0122 28.0357 45.1184C25.7886 45.5447 23.1286 44.5664 21.3002 42.6414C20.3669 41.6588 19.5306 39.9872 19.0848 38.2137C19.0113 37.9213 18.9364 37.6259 18.9183 37.5571C18.9002 37.4883 19.0359 37.6845 19.2199 37.9931C19.6511 38.7164 20.298 39.3813 20.8363 39.6545C21.3777 39.9292 22.0545 39.9777 22.6126 39.7817C22.8158 39.7103 23.0606 39.652 23.1566 39.652C23.4396 39.652 24.2787 39.3585 24.6642 39.1248C25.9726 38.3313 27.3774 38.0754 28.2756 38.4669L28.6174 38.6159L28.273 38.6849C27.5848 38.8228 27.1739 39.187 27.0236 39.7921C26.9811 39.9635 26.9606 40.3535 26.9752 40.7159L27.0004 41.3431L25.5598 41.3065C24.0245 41.2675 23.9231 41.2961 24.8082 41.5179C25.5886 41.7135 26.1808 41.7844 27.0271 41.7835C29.0878 41.7813 30.7133 41.1291 32.3383 39.6527C33.9144 38.2206 34.8414 36.3254 35.0882 34.0304C35.1822 33.156 34.9116 32.5083 34.1755 31.8462C33.9626 31.6547 33.8041 31.4729 33.8231 31.4422C33.8782 31.3529 34.2916 31.455 34.5454 31.6206C34.8335 31.8086 34.9281 31.8148 34.8734 31.6424C34.8507 31.5707 34.7668 31.2233 34.687 30.8704C33.943 27.5773 31.0902 25.0732 27.0821 24.1946C26.5172 24.0708 26.2587 24.0525 25.0886 24.0537C23.9377 24.0549 23.6557 24.0748 23.1304 24.1919C21.0467 24.6564 19.1169 25.6829 17.7176 27.071C16.1077 28.6682 15.1935 30.3003 14.83 32.2268C14.5998 33.4466 14.7182 33.6514 15.3093 33.0555C15.5017 32.8616 15.6681 32.712 15.6791 32.723C15.6901 32.734 15.619 33.028 15.5212 33.3764C15.2255 34.4297 15.1276 35.1701 15.1602 36.1049C15.1861 36.8444 15.2104 36.9879 15.3901 37.4633C16.6669 40.8399 19.1777 43.3428 22.6209 44.6712C24.0691 45.23 26.2283 45.5028 27.9883 45.3494C30.5271 45.1282 32.6257 44.2664 34.4647 42.6899C35.3436 41.9365 36.1833 40.9057 36.9364 39.6558C37.6094 38.5388 38.0033 37.486 38.2597 36.1188C38.4423 35.145 38.426 33.0469 38.2285 32.1198C37.8285 30.2416 36.995 28.5907 35.6382 26.9889C34.76 25.9522 32.9538 24.6532 31.5228 24.0293L31.0546 23.8251L30.862 23.2496C30.756 22.9331 30.5686 22.3997 30.4455 22.0644C30.3224 21.729 30.2306 21.4547 30.2415 21.4547C30.2523 21.4547 30.4789 21.5552 30.7449 21.6781C31.0109 21.801 31.2433 21.8868 31.2614 21.8688C31.3649 21.7653 30.3822 20.284 29.7579 19.6026L29.3933 19.2046L29.6016 19.2438C29.9942 19.3177 31.2698 19.6981 31.8843 19.9246C32.6904 20.2216 34.3541 21.0379 35.0627 21.4841C36.4994 22.3887 38.0749 23.7847 38.9817 24.9566C40.6162 27.069 41.5497 29.346 41.9812 32.273C42.5017 35.804 41.4282 39.589 39.1258 42.3409C38.4736 43.1204 36.9803 44.5359 36.3133 45.0067C34.2392 46.471 31.899 47.454 29.3409 47.9355C28.8075 48.0359 27.3017 48.2273 27.1838 48.2097C27.1492 48.2045 26.7551 48.1793 26.308 48.1537V48.1537ZM23.2933 27.4109C23.0204 27.0071 22.8404 26.5904 22.8387 26.3585C22.8377 26.2175 22.7952 26.1433 22.6799 26.0816C22.5934 26.0353 22.4549 25.9087 22.3723 25.8004C22.2275 25.6106 21.8305 24.8795 21.8575 24.8525C21.8647 24.8453 22.0911 24.9501 22.3606 25.0856C22.8915 25.3524 23.2168 25.3969 23.4488 25.2344C23.5252 25.1809 23.5878 25.0823 23.5878 25.0153C23.5878 24.9356 23.7623 24.7641 24.0934 24.5186C24.5912 24.1495 24.6056 24.1436 25.0107 24.1436C25.2371 24.1436 25.5994 24.1745 25.8159 24.2122C26.128 24.2665 26.2182 24.3081 26.2514 24.4127C26.2779 24.4961 26.2637 24.5544 26.2128 24.5714C26.1685 24.5862 25.9818 24.6774 25.798 24.7741C24.531 25.4406 23.7035 26.4169 23.6061 27.3603C23.5864 27.5516 23.5531 27.708 23.5321 27.7079C23.5111 27.7079 23.4037 27.5742 23.2933 27.4109ZM20.5147 24.0178C20.3895 23.9516 20.1503 23.7453 19.9832 23.5593C19.6962 23.24 19.6602 23.2197 19.3321 23.1937C19.141 23.1785 18.8514 23.1015 18.6884 23.0226C18.3913 22.8788 17.7096 22.3615 17.7096 22.2798C17.7096 22.2559 17.906 22.2364 18.1461 22.2364C18.5557 22.2364 18.5953 22.2237 18.7869 22.0321L18.9911 21.8279L18.8252 21.6882C18.734 21.6114 18.6237 21.4781 18.58 21.3922C18.4967 21.228 18.3946 20.7668 18.4416 20.7668C18.4567 20.7668 18.5866 20.8351 18.7303 20.9186C19.0662 21.1138 19.7037 21.2278 20.1679 21.1757C20.5206 21.1361 21.455 20.9194 21.51 20.8643C21.525 20.8493 21.4395 20.7512 21.3199 20.6462C21.1003 20.4534 20.6487 19.6764 20.6487 19.4915C20.6487 19.416 20.7252 19.4462 20.9583 19.6137C21.3056 19.8632 21.8598 20.0789 22.1535 20.0789H22.3482L22.1912 19.8923C22.0314 19.7024 21.7743 19.0954 21.7743 18.908C21.7743 18.8261 21.8096 18.8379 21.9463 18.9654C22.8587 19.8169 24.3646 20.0033 25.6369 19.4223C26.4284 19.0609 27.6257 18.0464 28.1105 17.3264L28.3303 17L28.3975 17.2419C28.5334 17.7313 28.4606 18.0973 28.1644 18.4136L27.9964 18.593L28.1527 18.5468C28.5086 18.4417 28.7023 18.3334 28.8382 18.1636L28.9818 17.9841L28.951 18.5497C28.9308 18.9215 28.8776 19.212 28.7956 19.3971L28.671 19.6789L29.1 19.7465C29.336 19.7836 29.5716 19.8493 29.6237 19.8925C29.7002 19.956 30.3863 20.9132 30.5449 21.1778C30.567 21.2146 30.4465 21.1762 30.2771 21.0924C30.0448 20.9774 29.9154 20.95 29.7507 20.9809L29.5322 21.0219L29.742 21.3165C30.0384 21.7326 30.3761 22.4289 30.5896 23.0644C30.6902 23.3636 30.7628 23.618 30.751 23.6298C30.7393 23.6415 30.4779 23.5247 30.1702 23.3702C29.4076 22.9872 28.47 22.6702 27.531 22.4778C26.8933 22.3472 26.5517 22.3153 25.7139 22.3079C24.6332 22.2985 23.5721 22.3525 23.3822 22.4267C23.2283 22.4869 23.1116 22.7341 23.0308 23.1715C22.9932 23.3749 22.9624 23.5498 22.9624 23.5603C22.9624 23.5707 22.8006 23.5059 22.6029 23.4163C21.3771 22.8609 20.9507 22.741 20.7863 22.9055C20.6739 23.0178 20.6957 23.4762 20.8303 23.8303C20.9385 24.1152 20.94 24.1434 20.8459 24.1409C20.789 24.1393 20.64 24.084 20.5147 24.0178ZM25.433 21.2755C25.5709 21.2129 25.7722 21.0609 25.8802 20.9378C26.0666 20.7256 26.1034 20.7116 26.5873 20.6694C26.8681 20.6449 27.0749 20.6028 27.0468 20.5758C26.968 20.5 26.2934 20.3916 25.9 20.3916C25.508 20.3916 24.7078 20.5767 24.3905 20.7408L24.1854 20.8469L24.4532 21.0844C24.6856 21.2907 24.7964 21.3401 25.1198 21.3814C25.1542 21.3858 25.2952 21.3382 25.433 21.2755Z" fill="#F4D1C8" fill-opacity="0.5"/>
<path d="M3.65243 2H52.3476V-2H3.65243V2ZM54 3.65243V66.3476H58V3.65243H54ZM52.3476 68H3.65243V72H52.3476V68ZM2 66.3476V3.65243H-2V66.3476H2ZM3.65243 68C2.73982 68 2 67.2602 2 66.3476H-2C-2 69.4693 0.530679 72 3.65243 72V68ZM54 66.3476C54 67.2602 53.2602 68 52.3476 68V72C55.4693 72 58 69.4693 58 66.3476H54ZM52.3476 2C53.2602 2 54 2.73982 54 3.65243H58C58 0.530679 55.4693 -2 52.3476 -2V2ZM3.65243 -2C0.53068 -2 -2 0.530676 -2 3.65243H2C2 2.73982 2.73982 2 3.65243 2V-2Z" fill="#141625"/>
</svg>
