<svg width="56" height="70" viewBox="0 0 56 70" fill="none" xmlns="http://www.w3.org/2000/svg">
<g filter="url(#filter0_ii_48_1582)">
<path d="M0 3.65243C0 1.63525 1.63525 0 3.65243 0H52.3476C54.3647 0 56 1.63525 56 3.65243V66.3476C56 68.3648 54.3647 70 52.3476 70H3.65243C1.63525 70 0 68.3648 0 66.3476V3.65243Z" fill="#141625"/>
<g filter="url(#filter1_ii_48_1582)">
<path d="M28.5 9C17.6911 9 9 26.3801 9 40.4681C9 54.5561 17.771 60 28.5 60C39.229 60 48 54.5561 48 40.4681C48 26.3801 39.229 9 28.5 9Z" fill="#AD4123"/>
<path d="M28.5 9C17.6911 9 9 26.3801 9 40.4681C9 54.5561 17.771 60 28.5 60C39.229 60 48 54.5561 48 40.4681C48 26.3801 39.229 9 28.5 9Z" fill="url(#paint0_radial_48_1582)" fill-opacity="0.23"/>
</g>
<g style="mix-blend-mode:soft-light">
<path d="M28.2775 45.3308H27.0652C26.2115 45.3308 25.5176 46.0247 25.5176 46.8784V48.5525C25.5176 49.4062 26.2115 50.1001 27.0652 50.1001H28.2775C29.1313 50.1001 29.8252 49.4062 29.8252 48.5525V46.8784C29.8252 46.0221 29.1313 45.3308 28.2775 45.3308Z" fill="#F4D1C8"/>
<path d="M19.7295 32.3719L21.9658 32.6504C22.6751 32.7381 23.3483 32.3306 23.6037 31.6625C23.9261 30.8191 24.3749 30.1536 24.9501 29.6687C25.7652 28.9826 26.7789 28.6369 27.9912 28.6369C29.2474 28.6369 30.2482 28.9671 30.991 29.6248C31.7339 30.2851 32.1027 31.0744 32.1027 32.0004C32.1027 32.6659 31.8938 33.2746 31.4759 33.8266C31.2051 34.1774 30.372 34.9151 28.9817 36.0423C27.5888 37.1695 26.6628 38.1858 26.1986 39.0885C25.724 40.012 25.5589 41.036 25.5176 42.0626C25.4815 42.9422 26.1831 43.6747 27.0652 43.6747H28.3291C29.1339 43.6747 29.7994 43.0582 29.8716 42.2586C29.9232 41.6834 30.0186 41.2475 30.1631 40.9509C30.4055 40.4427 31.0323 39.7721 32.0383 38.9364C33.9857 37.3243 35.2547 36.0501 35.8506 35.1112C36.4438 34.1748 36.7431 33.1818 36.7431 32.132C36.7431 30.2361 35.9357 28.5724 34.3184 27.1435C32.7038 25.7145 30.5268 25 27.7926 25C25.1926 25 23.0956 25.7042 21.4964 27.1151C20.1344 28.3171 19.3065 29.7409 19.015 31.384C18.9247 31.8637 19.2523 32.3125 19.7295 32.3719Z" fill="#F4D1C8"/>
</g>
<path d="M3.65243 3H52.3476V-3H3.65243V3ZM53 3.65243V66.3476H59V3.65243H53ZM52.3476 67H3.65243V73H52.3476V67ZM3 66.3476V3.65243H-3V66.3476H3ZM3.65243 67C3.2921 67 3 66.7079 3 66.3476H-3C-3 70.0216 -0.0216054 73 3.65243 73V67ZM53 66.3476C53 66.7079 52.7079 67 52.3476 67V73C56.0216 73 59 70.0216 59 66.3476H53ZM52.3476 3C52.7079 3 53 3.2921 53 3.65243H59C59 -0.0216058 56.0216 -3 52.3476 -3V3ZM3.65243 -3C-0.0216038 -3 -3 -0.021609 -3 3.65243H3C3 3.2921 3.2921 3 3.65243 3V-3Z" fill="url(#paint1_linear_48_1582)"/>
</g>
<defs>
<filter id="filter0_ii_48_1582" x="-2" y="-2" width="60" height="74" filterUnits="userSpaceOnUse" color-interpolation-filters="sRGB">
<feFlood flood-opacity="0" result="BackgroundImageFix"/>
<feBlend mode="normal" in="SourceGraphic" in2="BackgroundImageFix" result="shape"/>
<feColorMatrix in="SourceAlpha" type="matrix" values="0 0 0 0 0 0 0 0 0 0 0 0 0 0 0 0 0 0 127 0" result="hardAlpha"/>
<feOffset dx="2" dy="2"/>
<feGaussianBlur stdDeviation="2"/>
<feComposite in2="hardAlpha" operator="arithmetic" k2="-1" k3="1"/>
<feColorMatrix type="matrix" values="0 0 0 0 1 0 0 0 0 1 0 0 0 0 1 0 0 0 0.2 0"/>
<feBlend mode="normal" in2="shape" result="effect1_innerShadow_48_1582"/>
<feColorMatrix in="SourceAlpha" type="matrix" values="0 0 0 0 0 0 0 0 0 0 0 0 0 0 0 0 0 0 127 0" result="hardAlpha"/>
<feOffset dx="-2" dy="-2"/>
<feGaussianBlur stdDeviation="2"/>
<feComposite in2="hardAlpha" operator="arithmetic" k2="-1" k3="1"/>
<feColorMatrix type="matrix" values="0 0 0 0 0 0 0 0 0 0 0 0 0 0 0 0 0 0 0.25 0"/>
<feBlend mode="normal" in2="effect1_innerShadow_48_1582" result="effect2_innerShadow_48_1582"/>
</filter>
<filter id="filter1_ii_48_1582" x="-1" y="-1" width="54" height="66" filterUnits="userSpaceOnUse" color-interpolation-filters="sRGB">
<feFlood flood-opacity="0" result="BackgroundImageFix"/>
<feBlend mode="normal" in="SourceGraphic" in2="BackgroundImageFix" result="shape"/>
<feColorMatrix in="SourceAlpha" type="matrix" values="0 0 0 0 0 0 0 0 0 0 0 0 0 0 0 0 0 0 127 0" result="hardAlpha"/>
<feOffset dx="5" dy="5"/>
<feGaussianBlur stdDeviation="5"/>
<feComposite in2="hardAlpha" operator="arithmetic" k2="-1" k3="1"/>
<feColorMatrix type="matrix" values="0 0 0 0 1 0 0 0 0 1 0 0 0 0 1 0 0 0 0.3 0"/>
<feBlend mode="normal" in2="shape" result="effect1_innerShadow_48_1582"/>
<feColorMatrix in="SourceAlpha" type="matrix" values="0 0 0 0 0 0 0 0 0 0 0 0 0 0 0 0 0 0 127 0" result="hardAlpha"/>
<feOffset dx="-10" dy="-10"/>
<feGaussianBlur stdDeviation="10"/>
<feComposite in2="hardAlpha" operator="arithmetic" k2="-1" k3="1"/>
<feColorMatrix type="matrix" values="0 0 0 0 0 0 0 0 0 0 0 0 0 0 0 0 0 0 0.43 0"/>
<feBlend mode="normal" in2="effect1_innerShadow_48_1582" result="effect2_innerShadow_48_1582"/>
</filter>
<radialGradient id="paint0_radial_48_1582" cx="0" cy="0" r="1" gradientUnits="userSpaceOnUse" gradientTransform="translate(37 55.5) rotate(-116.565) scale(35.7771 27.3589)">
<stop/>
<stop offset="1" stop-opacity="0"/>
</radialGradient>
<linearGradient id="paint1_linear_48_1582" x1="12" y1="2.5" x2="46" y2="67.5" gradientUnits="userSpaceOnUse">
<stop stop-color="#B86F5A"/>
<stop offset="1" stop-color="#542011"/>
</linearGradient>
</defs>
</svg>
