<svg width="48" height="48" viewBox="0 0 48 48" fill="none" xmlns="http://www.w3.org/2000/svg">
<g id="Perks">
<g id="Group">
<path id="Vector" d="M22.706 2.95962C21.056 2.94649 19.3778 3.26712 17.7747 3.74712C15.4403 4.44555 13.1528 5.51618 11.5028 7.21587C9.8341 8.91743 8.92847 11.4843 9.74035 14.1749L11.9247 21.4781C12.656 20.3437 13.5185 19.2937 14.5122 18.3656L12.9747 13.2093C12.4872 11.5968 12.8716 10.6406 13.9122 9.5718C14.9528 8.50962 16.7622 7.57212 18.7403 6.98055C20.0997 6.57368 21.4778 6.3468 22.6872 6.3468C23.231 6.3468 23.7466 6.39462 24.1966 6.49399C25.6497 6.8118 26.4935 7.39868 26.981 9.01587L28.5185 14.1749C29.8685 14.4093 31.1716 14.8031 32.3997 15.3562L30.2153 8.04743C29.4091 5.35305 27.2435 3.70868 24.9185 3.20055C24.1966 3.04024 23.456 2.96618 22.706 2.95962ZM25.8935 15.6093C24.4403 15.5999 22.9685 15.7968 21.506 16.2374C13.7153 18.5624 9.29785 26.7468 11.6341 34.5468C13.9685 42.3374 22.1435 46.7531 29.9435 44.4187C37.7341 42.0843 42.1497 33.9093 39.8153 26.1093C37.9216 19.7718 32.1653 15.6749 25.8935 15.6093ZM25.6028 21.7031C29.3622 21.6468 32.8591 24.0843 33.9841 27.8531C35.3528 32.4093 32.7466 37.2281 28.1997 38.5874C23.6435 39.9562 18.8247 37.3499 17.4653 32.8031C16.0966 28.2468 18.7028 23.4281 23.2497 22.0593C24.0372 21.8249 24.8247 21.7124 25.6028 21.7031ZM25.8091 23.3812C25.3966 23.3812 24.9747 23.4187 24.5528 23.4937L25.4153 26.3437L23.8028 26.8312L22.9497 23.9718C21.7591 24.4874 20.7747 25.3031 20.0622 26.3062L22.7903 27.7781L21.9841 29.2687L19.256 27.8062C18.8153 28.9499 18.6653 30.2156 18.8903 31.4906L21.7685 30.6281L22.2466 32.2499L19.3685 33.1124C20.7185 36.2062 24.1122 37.9031 27.4403 37.0499L24.4122 32.7374L28.1435 31.6218L27.9841 36.8906C31.2278 35.7749 33.131 32.4749 32.5591 29.1656L29.681 30.0187L29.2028 28.4062L32.081 27.5437C31.5653 26.3531 30.7403 25.3781 29.7372 24.6656L28.256 27.3937L26.7747 26.5874L28.256 23.8593C27.4872 23.5593 26.6622 23.3906 25.8091 23.3812Z" fill="white"/>
</g>
</g>
</svg>
