<svg width="48" height="48" viewBox="0 0 48 48" fill="none" xmlns="http://www.w3.org/2000/svg">
<g id="Property 1=wizard-face 1">
<g id="Group">
<path id="Vector" d="M24.0279 1.8208C19.1248 5.36268 16.6123 10.4064 14.2967 15.0658C18.3654 12.7596 23.8311 11.9814 26.1936 12.3752C20.2123 13.3689 16.0686 14.7939 12.6561 18.4033C12.4498 18.8252 12.2717 19.1814 12.0561 19.6314C22.8748 17.0252 24.6561 17.1002 35.5779 19.5658C34.4998 14.8689 32.1561 11.8689 28.4998 6.17174C32.4279 11.1002 40.1342 19.5096 39.7779 17.8689C37.6311 8.03736 30.3936 2.20236 24.0279 1.8208ZM8.2498 21.6846C5.34355 22.3783 3.19668 23.3252 2.3623 24.1877C2.44668 25.2846 2.99043 26.2596 4.00293 27.1877C5.10918 28.2002 6.77793 29.1002 8.8123 29.8221C9.06449 29.9064 9.31762 29.9908 9.57168 30.0752C8.78418 29.0439 8.52168 27.6096 8.35293 26.2221C8.35293 24.7783 8.07168 23.0814 8.2498 21.6846ZM39.7498 21.6846C39.9561 23.2033 39.806 24.9189 39.6467 26.2221C39.4779 27.6096 39.2154 29.0439 38.4279 30.0752C40.3217 29.4189 42.6092 28.4252 43.9967 27.1877C45.0092 26.2596 45.5529 25.2846 45.6373 24.1877C44.8029 23.3252 42.6654 22.3783 39.7498 21.6846ZM14.0248 21.7127L13.3686 23.0252H22.6311L21.9748 21.7127H14.0248ZM26.0248 21.7127L25.3686 23.0252H34.6311L33.9748 21.7127H26.0248ZM11.1561 22.5939C10.7154 22.7158 10.2748 22.8377 9.84355 22.9783C9.9373 24.8439 9.8998 27.4408 10.9311 29.0252H11.1561V22.5939ZM36.8436 22.5939V29.0252H37.0686C38.0529 27.0846 38.1279 25.1064 38.1561 22.9783C37.7248 22.8377 37.2842 22.7158 36.8436 22.5939ZM12.8529 24.7127C12.8248 26.4752 13.0404 28.4158 13.4342 29.9346C15.4123 28.6127 17.3623 27.5252 19.4998 27.5252C19.7998 27.5252 20.0998 27.5439 20.3811 27.5627L20.8686 26.0908C20.3436 26.6252 19.6592 26.9252 18.6936 26.8877C16.3311 26.8127 15.5154 25.8471 15.1779 24.7127H12.8529ZM23.1092 24.7127L21.9467 28.2002L23.9998 30.7689L26.0529 28.2002L24.8904 24.7127H23.1092ZM32.8217 24.7127C32.4842 25.8471 31.6686 26.8127 29.3061 26.8877C28.3404 26.9252 27.6561 26.6252 27.1311 26.0908L27.6186 27.5627C27.9092 27.5346 28.2092 27.5252 28.4998 27.5252C30.6373 27.5252 32.5873 28.6127 34.5654 29.9346C34.9779 28.0502 35.2029 26.4096 35.1467 24.7127H32.8217ZM19.4998 29.2127C17.6248 29.2127 15.4686 30.5721 13.0404 32.2502C11.2404 33.4971 9.2998 34.8846 7.10605 35.8502C9.7873 36.4221 13.2748 36.3002 16.3123 35.6064C18.3092 35.1564 20.1092 34.472 21.3467 33.6846C22.1436 33.1689 22.6686 32.6439 22.9404 32.1471L20.6717 29.3064C20.3248 29.2502 19.9311 29.2127 19.4998 29.2127ZM28.4998 29.2127C28.0686 29.2127 27.6748 29.2502 27.3279 29.3064L25.0592 32.1471C25.3311 32.6439 25.8561 33.1689 26.6529 33.6846C27.8904 34.472 29.6904 35.1564 31.6873 35.6064C34.7248 36.3002 38.2123 36.4221 40.8936 35.8502C38.6998 34.8846 36.7592 33.4971 34.9592 32.2502C32.531 30.5721 30.3748 29.2127 28.4998 29.2127ZM23.9998 33.5908C23.5686 34.1252 23.0061 34.6033 22.3686 35.0252H25.6311C24.9936 34.6033 24.4311 34.1252 23.9998 33.5908ZM18.6842 36.7127C18.0373 36.9189 17.3717 37.0971 16.6873 37.2564C15.7967 37.4627 14.8873 37.6221 13.9779 37.7346C14.5498 39.5721 15.2998 41.4377 16.1342 43.1908L16.1436 43.2096C16.5467 42.5814 17.0248 41.9814 17.4092 41.3533C17.1842 42.6564 17.0998 43.9689 17.1936 45.2721C17.3529 45.5814 17.5217 45.8814 17.6904 46.1814H30.3092C30.6467 45.5908 30.9654 44.9908 31.2748 44.3814C31.7811 42.3283 31.6404 40.3689 31.7811 38.3627C32.0717 39.4408 32.3529 40.5189 32.5779 41.6158C33.1217 40.3408 33.6186 39.0283 34.0217 37.7346C33.1123 37.6221 32.2029 37.4627 31.3123 37.2564C30.6279 37.0971 29.9623 36.9189 29.3154 36.7127H18.6842Z" fill="white"/>
</g>
</g>
</svg>
