<svg width="48" height="48" viewBox="0 0 48 48" fill="none" xmlns="http://www.w3.org/2000/svg">
<g id="Property 1=angel-wings (1) 1">
<g id="Group">
<path id="Vector" d="M8.66619 2.71582C7.05604 4.47382 5.70257 6.53332 4.64947 8.81238L15.7033 19.1864L14.5051 20.4637L3.92872 10.538C3.06716 12.8121 2.48713 15.2682 2.2266 17.8359L13.1162 23.3409L12.3253 24.9052L2.09188 19.7314C2.0016 22.0236 2.16472 24.3876 2.6016 26.7772L12.0263 27.5566L11.8828 29.3027L2.97941 28.5673C3.04907 28.857 3.12144 29.1471 3.19926 29.4373C3.61457 30.9851 4.13113 32.4692 4.73441 33.8846C5.55538 33.7332 6.40391 33.5777 7.34188 33.4011C9.85007 32.9293 12.3193 32.458 12.3193 32.458L12.6475 34.1776C12.6475 34.1776 10.1755 34.6514 7.6641 35.1239C6.91297 35.2653 6.18313 35.4023 5.49022 35.5311C6.30116 37.1724 7.23585 38.708 8.27057 40.1249L13.9746 36.9111L14.8333 38.4374L9.3576 41.5253C10.5015 42.9119 11.7465 44.1678 13.0723 45.2753L14.6808 43.3681C14.8102 41.4427 15.1461 39.8314 16.0285 38.5193C16.6227 37.6357 17.476 36.9419 18.5743 36.4627C17.7995 35.2607 17.1845 33.9018 16.7814 32.3993C15.4196 27.3228 16.8358 22.2284 20.1944 19.453L8.666 2.71582H8.66619ZM39.6827 2.71582L28.1546 19.453C31.5133 22.2284 32.9324 27.3227 31.5705 32.3993C31.1712 33.8878 30.561 35.234 29.7951 36.4278C30.9524 36.9325 31.8158 37.6936 32.3732 38.6454C33.1054 39.8954 33.3571 41.3751 33.4426 43.0954L35.2794 45.2751C36.605 44.1677 37.8503 42.9119 38.9942 41.5251L33.5158 38.4374L34.3771 36.9111L40.0811 40.1249C41.1161 38.7077 42.0504 37.1727 42.8615 35.5311C42.1678 35.4023 41.4358 35.2653 40.6846 35.1239C38.1733 34.6514 35.7013 34.1776 35.7013 34.1776L36.0294 32.4579C36.0294 32.4579 38.5018 32.9292 41.0098 33.401C41.928 33.5739 42.8095 33.7384 43.6173 33.8876C44.2211 32.4715 44.7371 30.9857 45.1525 29.4373C45.2303 29.1471 45.3027 28.857 45.3722 28.5673L36.4689 29.3024L36.3254 27.5563L45.7501 26.7772C46.187 24.3875 46.3473 22.0236 46.2569 19.7313L36.0236 24.905L35.2325 23.3406L46.1251 17.8358C45.8642 15.2671 45.2855 12.8099 44.423 10.535L33.8467 20.4636L32.6458 19.1864L43.6992 8.81238C42.6459 6.53332 41.2929 4.47391 39.6826 2.71582H39.6827ZM24.009 27.1902C23.0292 27.1902 22.1179 27.691 21.4047 28.6083C20.6912 29.5255 20.218 30.8484 20.218 32.329C20.218 33.8096 20.6911 35.1324 21.4045 36.0497C22.1179 36.967 23.0292 37.4707 24.009 37.4707C24.9889 37.4707 25.8972 36.967 26.6106 36.0498C27.324 35.1326 27.7971 33.8098 27.7971 32.3292C27.7971 30.8486 27.3239 29.5257 26.6106 28.6084C25.8972 27.6912 24.9889 27.1905 24.009 27.1905V27.1902ZM27.7239 37.6143C26.7526 38.6586 25.4518 39.3338 24.0089 39.3338C22.6067 39.3338 21.338 38.6965 20.3761 37.702C20.1266 37.7639 19.8936 37.8318 19.6788 37.9071C18.6041 38.284 17.9549 38.794 17.4816 39.4981C16.62 40.7787 16.3995 42.9715 16.3653 45.9901H31.7227C31.71 43.0323 31.6145 40.816 30.8613 39.5301C30.4469 38.8223 29.8679 38.3164 28.8399 37.9306C28.5148 37.8085 28.143 37.7021 27.7237 37.6142L27.7239 37.6143Z" fill="white"/>
</g>
</g>
</svg>
