<svg width="48" height="48" viewBox="0 0 48 48" fill="none" xmlns="http://www.w3.org/2000/svg">
<g id="Property 1=Frame">
<path id="Vector" d="M24.2019 1.95224C24.0976 1.95299 23.9932 1.95468 23.8885 1.9574C20.2022 2.05499 16.2472 3.45477 12.2836 6.68277L11.7185 7.14308L11.1811 6.6509C9.99574 5.56546 9.28024 4.0603 8.77614 2.55252C7.93483 6.0194 7.40449 10.1824 7.91064 13.2891C9.60424 13.3742 12.1677 13.085 14.82 12.5561C16.4942 12.2223 18.1995 11.7943 19.7948 11.3306C18.5367 11.0577 17.367 10.6854 16.2189 10.1979L14.7106 9.55743L16.108 8.70177C20.455 6.03993 23.6984 4.88746 27.3801 5.36868C30.4837 5.77433 33.8823 7.32496 38.5425 9.80033C36.1638 6.3959 32.7072 3.73124 28.7243 2.58215C27.2803 2.16561 25.7662 1.94202 24.2019 1.95224ZM32.438 10.8752C28.063 10.8752 28.063 10.8752 28.063 15.2501V32.7564C28.063 33.6561 28.0637 34.368 28.1019 34.9354C29.6693 34.4915 31.2535 34.1092 32.8509 33.7895C35.1617 33.3287 37.3853 33.0185 39.218 33.001C39.829 32.9952 40.3965 33.022 40.9093 33.0865L41.5009 33.1609L41.6282 33.7433C41.8592 34.7994 41.9725 35.9415 41.9951 37.1239C45.5606 37.1061 45.563 36.837 45.563 32.7504V15.25C45.563 10.8752 45.563 10.8752 41.188 10.8752C41.3169 11.1115 41.4412 11.3503 41.561 11.5914L42.7445 13.9854L40.4004 12.7059C39.1736 12.0363 38.0412 11.4279 36.983 10.8752H32.438ZM6.00583 10.8767C2.44033 10.8945 2.43799 11.1636 2.43799 15.2501V32.7564C2.43799 37.1252 2.43799 37.1252 6.81293 37.1252C6.68409 36.8888 6.55976 36.65 6.43999 36.4089L5.25649 34.0149L7.60061 35.2945C8.82733 35.9641 9.95974 36.5725 11.018 37.1252H15.563C19.938 37.1252 19.9379 37.1252 19.9379 32.7502V15.2501C19.9379 14.3477 19.9374 13.6339 19.8989 13.0654C18.3316 13.5092 16.7474 13.8913 15.1501 14.211C12.069 14.8254 9.14289 15.1719 7.09164 14.9139L6.50008 14.8396L6.37277 14.2571C6.14177 13.201 6.02843 12.0591 6.00583 10.8767ZM39.2514 34.6965C37.6067 34.7199 35.4239 34.9971 33.181 35.4443C31.5068 35.7781 29.8014 36.2061 28.2062 36.6698C29.4642 36.9426 30.634 37.3149 31.7821 37.8025L33.2904 38.443L31.8929 39.2987C27.546 41.9604 24.3025 43.1129 20.6209 42.6318C17.5173 42.2261 14.1187 40.6754 9.45846 38.2C11.8372 41.6046 15.2937 44.2692 19.2767 45.4182C24.2054 46.84 29.9522 46.0129 35.7174 41.3176L36.2825 40.8573L36.8199 41.3495C38.0052 42.435 38.7207 43.9401 39.2248 45.4479C40.0661 41.981 40.5965 37.818 40.0903 34.7113C39.829 34.6982 39.5515 34.6922 39.2513 34.6965H39.2514Z" fill="white"/>
</g>
</svg>
