<svg width="48" height="48" viewBox="0 0 48 48" fill="none" xmlns="http://www.w3.org/2000/svg">
<g id="Property 1=Time">
<path id="Vector" d="M23.9907 1.97266C22.8845 1.97266 21.9095 2.35516 21.3095 2.91109C20.7845 3.37797 20.5032 3.98078 20.5032 4.60891C20.5032 5.12922 20.7095 5.64109 21.0564 6.06016C19.5189 6.52609 18.2345 7.33891 17.4001 8.35984C19.472 7.64078 21.6845 7.24797 23.9907 7.24797C26.297 7.24797 28.5189 7.64078 30.5814 8.35984C29.747 7.33891 28.4626 6.52609 26.9251 6.06016C27.2907 5.64109 27.4782 5.12922 27.4782 4.60891C27.4782 3.98078 27.197 3.37797 26.6814 2.91109C26.0814 2.35516 25.097 1.97266 23.9907 1.97266ZM23.9907 3.87953C24.4876 3.87953 24.9376 3.99859 25.2657 4.20953C25.4251 4.31828 25.5845 4.43734 25.5845 4.60984C25.5845 4.77484 25.4251 4.89391 25.2657 5.00266C24.9376 5.22109 24.4876 5.34109 23.9907 5.34109C23.4939 5.34109 23.0439 5.22109 22.7157 5.00266C22.5657 4.89391 22.4064 4.77484 22.4064 4.60984C22.4064 4.43734 22.5657 4.31828 22.7157 4.20953C23.0439 3.99859 23.4939 3.87953 23.9907 3.87953ZM24.0001 8.38891C13.6126 8.38891 5.18262 16.8283 5.18262 27.2158C5.18262 37.6033 13.6126 46.0314 24.0001 46.0314C34.3876 46.0314 42.8157 37.6033 42.8157 27.2158C42.8157 16.8283 34.3876 8.38891 24.0001 8.38891ZM24.0001 11.447C32.7095 11.447 39.7689 18.5064 39.7689 27.2158C39.7689 35.9158 32.7095 42.9845 24.0001 42.9845C15.2907 42.9845 8.22574 35.9158 8.22574 27.2158C8.22574 18.5064 15.2907 11.447 24.0001 11.447ZM23.2314 12.0377C22.3314 12.0845 21.4501 12.2158 20.5782 12.422L20.7939 13.1533C21.5814 12.9658 22.397 12.8439 23.2314 12.797V12.0377ZM24.7501 12.0377V12.797C25.5939 12.8439 26.4095 12.9658 27.1876 13.1533L27.3939 12.422C26.5407 12.2158 25.6501 12.0845 24.7501 12.0377ZM19.1251 12.8345C18.2814 13.1345 17.4751 13.4908 16.7064 13.922L17.0907 14.5877C17.8126 14.1845 18.5532 13.847 19.3314 13.5752L19.1251 12.8345ZM28.847 12.8345L28.6595 13.5752C29.447 13.847 30.1782 14.1845 30.8907 14.5877L31.2845 13.922C30.5157 13.4908 29.7001 13.1345 28.847 12.8345ZM15.4126 14.7377C14.7095 15.2439 14.0439 15.8064 13.4345 16.4158L13.9782 16.9595C14.5314 16.3877 15.1501 15.8627 15.8064 15.4033L15.4126 14.7377ZM32.5595 14.7377L32.1845 15.4033C32.8314 15.8627 33.4501 16.3877 34.0126 16.9595L34.547 16.4158C33.9376 15.8064 33.2626 15.2439 32.5595 14.7377ZM23.9907 15.8158C20.522 15.8158 17.672 18.497 17.4001 21.9002L18.8907 22.3408C18.9564 19.5658 21.2064 17.3345 23.9907 17.3345C26.8126 17.3345 29.0907 19.622 29.0907 22.4252C29.0907 23.8314 28.5095 25.1158 27.5907 26.0345L27.6001 26.0439C27.7595 26.297 27.8814 26.5689 27.9845 26.8502C28.0689 27.1314 28.1439 27.3845 28.2001 27.6564V27.6939C31.3689 26.1283 33.5626 22.8658 33.5626 19.097C33.5626 18.7408 33.5439 18.4127 33.5064 18.0752C33.2064 17.7658 32.9157 17.4752 32.5876 17.1845C32.7282 17.7939 32.8032 18.4408 32.8032 19.097C32.8032 21.7877 31.5845 24.2252 29.6626 25.8283C30.2532 24.8345 30.6095 23.672 30.6095 22.4252C30.6095 18.7783 27.6376 15.8158 23.9907 15.8158ZM15.3845 17.1845C15.0751 17.4752 14.7751 17.7658 14.4751 18.0752C14.447 18.4127 14.4282 18.7408 14.4282 19.097C14.4282 19.7814 14.4939 20.4283 14.6251 21.0564L15.4782 21.3095C15.2814 20.6064 15.1876 19.8658 15.1876 19.097C15.1876 18.4408 15.2532 17.7939 15.3845 17.1845ZM12.422 17.5595C11.8782 18.2252 11.4001 18.9283 10.9782 19.6783L11.6439 20.0533C12.0282 19.3595 12.4689 18.7127 12.9564 18.1033L12.422 17.5595ZM35.5595 17.5595L35.0251 18.1033C35.522 18.7127 35.9626 19.3595 36.3282 20.0533L36.9939 19.6783C36.5814 18.9283 36.1032 18.2252 35.5595 17.5595ZM10.322 21.0377C10.0876 21.572 9.89074 22.1064 9.72199 22.6877L9.73137 22.6595C10.0501 22.1908 10.472 21.7877 10.9407 21.4877L10.9689 21.4314L10.322 21.0377ZM37.6782 21.0377L37.0032 21.4314C37.3032 22.1158 37.5376 22.847 37.7157 23.597L38.4564 23.4002C38.2595 22.5752 37.997 21.7783 37.6782 21.0377ZM13.1907 22.1158C11.9345 22.1252 10.7814 22.9595 10.4064 24.2252L21.1689 27.4314C20.7095 28.997 21.6001 30.6377 23.1564 31.1064L33.9095 34.3127C35.4657 34.7814 37.1064 33.9002 37.5751 32.3439L26.8314 29.1189C27.2907 27.572 26.3907 25.922 24.8345 25.4533C24.8345 25.4533 18.047 23.4377 14.072 22.2377C13.7814 22.1533 13.4814 22.1064 13.1907 22.1158ZM9.24481 24.9002C9.16043 25.547 9.11355 26.2127 9.11355 26.897C9.11355 27.0189 9.12293 27.1689 9.12293 27.2908H9.88137V26.897C9.88137 26.2877 9.91887 25.6877 9.99387 25.097L9.24481 24.9002ZM38.7376 24.9002L37.997 25.097C38.0626 25.6877 38.1189 26.2877 38.1189 26.897C38.1189 27.0189 38.1189 27.1689 38.1001 27.2908H38.8689V26.897C38.8689 26.2127 38.822 25.547 38.7376 24.9002ZM23.9907 27.2158C24.5814 27.2158 25.0689 27.6845 25.0689 28.2752C25.0689 28.8752 24.5814 29.3627 23.9907 29.3627C23.4001 29.3627 22.9126 28.8752 22.9126 28.2752C22.9126 27.6845 23.4001 27.2158 23.9907 27.2158ZM9.23543 28.8189C9.32918 29.5877 9.50637 30.3564 9.71262 31.097L10.4532 30.9002C10.2564 30.2252 10.097 29.5314 10.0032 28.8189H9.23543ZM37.9876 28.8189C37.8845 29.5314 37.7345 30.2252 37.5376 30.9002L38.2689 31.097C38.4751 30.3564 38.6532 29.5877 38.7564 28.8189H37.9876ZM20.0532 29.8408C18.272 31.0877 17.1095 33.1502 17.1095 35.4752C17.1095 36.4502 17.3251 37.3877 17.6907 38.2595C18.5157 38.7189 19.3689 39.0845 20.2782 39.3564C19.2657 38.3533 18.6376 36.9939 18.6376 35.4752C18.6376 33.6939 19.5095 32.1002 20.8595 31.1345C20.5032 30.7502 20.2314 30.3189 20.0532 29.8408ZM10.9501 32.3439L10.2095 32.5314C10.5001 33.2439 10.847 33.9095 11.2407 34.5564L11.8876 34.1627C11.5314 33.5814 11.2314 32.9627 10.9501 32.3439ZM29.2126 34.2658C29.297 34.6502 29.3439 35.0627 29.3439 35.4752C29.3439 36.9939 28.7157 38.3533 27.7126 39.3564C28.6126 39.0845 29.4751 38.7189 30.2907 38.2595C30.6657 37.3877 30.872 36.4502 30.872 35.4752C30.872 35.222 30.8532 34.9877 30.8345 34.7533L29.2126 34.2658ZM12.7501 35.4283L12.0845 35.8127C12.5251 36.3939 12.9939 36.947 13.5189 37.4345L14.0532 36.9189C13.5751 36.4502 13.1439 35.9533 12.7501 35.4283ZM35.6157 35.6439L35.597 35.6533C35.4001 35.6814 35.222 35.7095 35.0157 35.7189H35.0064C34.6689 36.1408 34.322 36.5439 33.9282 36.9189L34.472 37.4345C34.9876 36.947 35.4564 36.3939 35.897 35.8127L35.6157 35.6439ZM15.197 37.8939L14.6439 38.447C15.2064 38.897 15.7876 39.3564 16.4064 39.722L16.7626 38.9908C16.2282 38.7189 15.6939 38.3533 15.197 37.8939ZM32.7939 37.8939C32.2876 38.3533 31.7532 38.7189 31.2189 38.9908L31.5845 39.722C32.1939 39.3564 32.7845 38.897 33.3376 38.447L32.7939 37.8939ZM18.1314 39.722L17.747 40.3595C18.3657 40.7345 19.0314 40.9033 19.6876 41.1845L19.8939 40.4439C19.2845 40.2658 18.7032 39.9939 18.1314 39.722ZM29.8689 39.722C29.2876 39.9939 28.697 40.2658 28.0782 40.4439L28.2939 41.1845C28.9689 40.9033 29.6064 40.7345 30.2345 40.3595L29.8689 39.722ZM21.3657 40.8189L21.1782 41.5502C21.8439 41.6439 22.5376 41.7283 23.2314 41.7283V41.0064C22.5939 41.0064 21.9657 40.9033 21.3657 40.8189ZM26.6064 40.8189C26.0157 40.9033 25.3876 41.0064 24.7501 41.0064V41.7283C25.4532 41.7283 26.1376 41.6439 26.822 41.5502L26.6064 40.8189Z" fill="white"/>
</g>
</svg>
