<svg width="48" height="48" viewBox="0 0 48 48" fill="none" xmlns="http://www.w3.org/2000/svg">
<g id="Property 1=clown 1">
<g id="Group">
<path id="Vector" d="M23.9998 2.34351C20.4091 2.34351 18.9466 3.61851 18.1498 5.24694C17.6248 6.30444 17.4466 7.55413 17.381 8.71851H30.6091C30.5341 7.55882 30.3373 6.31101 29.8029 5.25257C28.9873 3.61851 27.5248 2.34351 23.9998 2.34351ZM14.7279 10.406L15.581 12.656H33.1591L33.5154 10.406H14.7279ZM8.5779 11.2966C8.35758 11.306 8.1504 11.3341 7.96383 11.3904C7.47071 11.5216 7.08258 11.7935 6.75258 12.3841C6.70477 12.4873 6.69915 12.5529 6.79008 12.7779C6.8829 13.0216 7.09946 13.3591 7.35727 13.7341C7.61508 14.1091 7.91133 14.5216 8.13258 15.0091C8.35383 15.4966 8.5029 16.1154 8.30602 16.7529C8.03883 17.606 7.40602 18.1873 6.74227 18.5904C6.07852 18.9841 5.35196 19.256 4.67883 19.5091C4.00665 19.7716 3.38977 20.0154 2.98008 20.2966C2.57133 20.5685 2.39321 20.7935 2.33321 21.1404C2.24133 21.6841 2.49821 22.2373 3.05415 22.8935C3.61102 23.5498 4.41446 24.2248 5.09696 24.8998C5.69321 25.4998 5.69977 26.2779 5.66883 26.8404C5.63883 27.4123 5.58446 27.9185 5.61915 28.1154C5.63321 28.2091 5.65196 28.2091 5.64258 28.1998C5.63321 28.1904 5.65571 28.2279 5.84321 28.256C6.16665 28.3029 6.94665 28.2091 8.1579 27.8623V27.7498C8.1579 22.2091 10.0226 17.1654 13.0507 13.5748C12.2257 12.6841 10.9695 11.8216 9.78821 11.4748C9.44133 11.381 9.11321 11.3248 8.80571 11.306C8.72883 11.2966 8.65383 11.2966 8.57977 11.2966H8.5779ZM39.1966 11.306C38.8873 11.3248 38.5591 11.381 38.2123 11.4841C37.031 11.831 35.7748 12.6841 34.9498 13.5748C37.9779 17.1654 39.8435 22.2091 39.8435 27.7498V27.8623C41.0529 28.2091 41.8404 28.3029 42.1591 28.256C42.3466 28.2279 42.3654 28.1904 42.356 28.1998C42.356 28.2091 42.3654 28.2091 42.3841 28.1154C42.4123 27.9185 42.3654 27.4123 42.3279 26.8404C42.2998 26.2779 42.3091 25.4998 42.8998 24.8998C43.5841 24.2248 44.3904 23.5498 44.9435 22.8935C45.506 22.2373 45.7591 21.6841 45.6654 21.1404C45.6091 20.7935 45.431 20.5685 45.0185 20.2966C44.606 20.0154 43.9966 19.7716 43.3216 19.5091C42.6466 19.256 41.9248 18.9841 41.2591 18.5904C40.5935 18.1873 39.9654 17.606 39.6935 16.7529C39.4966 16.1154 39.6466 15.4966 39.8716 15.0091C40.0873 14.5216 40.3873 14.1091 40.6404 13.7341C40.9029 13.3591 41.1185 13.0216 41.2123 12.7779C41.2966 12.5529 41.2966 12.4873 41.2498 12.3841C40.9216 11.7935 40.5279 11.531 40.0404 11.3904C39.8529 11.3341 39.6466 11.306 39.4216 11.306H39.1966ZM14.6248 14.3435C11.7091 17.606 9.84352 22.3779 9.84352 27.7498C9.84352 29.9154 10.1435 31.9873 10.706 33.8998C11.8404 32.5123 13.5935 31.781 15.5623 31.781C16.7998 31.781 18.1404 32.0435 19.5185 32.5498C19.6072 31.7006 19.9356 30.8942 20.4654 30.2248C19.3591 29.8779 18.6466 29.7185 17.9998 29.7185C17.0623 29.7185 16.0123 30.0466 13.7623 30.7966L12.656 31.1716V29.9998C12.656 29.4841 12.7591 28.6591 12.9466 27.581C13.1435 26.4935 13.4341 25.1998 13.8185 23.9435C14.2029 22.6779 14.6904 21.4498 15.3185 20.4748C15.6279 19.9966 15.9935 19.556 16.4154 19.2279L17.9998 15.7498L19.5841 19.2279C20.006 19.556 20.3716 19.9966 20.681 20.4748C21.3091 21.4498 21.7966 22.6779 22.181 23.9435C22.5654 25.1998 22.856 26.4935 23.0529 27.581C23.1185 27.9373 23.1654 28.2654 23.2123 28.5748C23.4721 28.5267 23.7356 28.5016 23.9998 28.4998C24.264 28.5016 24.5275 28.5267 24.7873 28.5748C24.8341 28.2748 24.881 27.9373 24.9466 27.581C25.1435 26.4935 25.4341 25.1998 25.8185 23.9435C26.2029 22.6779 26.6904 21.4498 27.3185 20.4748C27.6279 19.9966 27.9935 19.556 28.4154 19.2279L29.9998 15.7498L31.5841 19.2279C32.006 19.556 32.3716 19.9966 32.681 20.4748C33.3091 21.4498 33.7966 22.6779 34.181 23.9435C34.5654 25.1998 34.856 26.4935 35.0529 27.581C35.2404 28.6591 35.3435 29.4841 35.3435 29.9998V31.1716L34.2373 30.7966C31.9873 30.0466 30.9373 29.7185 29.9998 29.7185C29.3529 29.7185 28.6498 29.8779 27.5341 30.2248C28.0606 30.8953 28.3857 31.7016 28.4716 32.5498C29.8591 32.0435 31.1904 31.781 32.4373 31.781C34.406 31.781 36.1591 32.5123 37.2935 33.8998C37.856 31.9873 38.156 29.9154 38.156 27.7498C38.156 22.3779 36.2904 17.606 33.3748 14.3435H14.6248ZM17.9998 20.3435C17.6716 20.3435 17.231 20.6341 16.7435 21.3841C16.2466 22.1435 15.7966 23.2591 15.431 24.431C15.0654 25.6123 14.7935 26.8498 14.6154 27.8716C14.5498 28.2185 14.5123 28.4998 14.4748 28.7904C15.4873 28.4623 16.2654 28.2279 16.9966 28.1154C16.8402 27.9747 16.7151 27.8026 16.6295 27.6104C16.5439 27.4182 16.4997 27.2102 16.4998 26.9998C16.4998 26.6019 16.6578 26.2204 16.9391 25.9391C17.2204 25.6578 17.6019 25.4998 17.9998 25.4998C18.3976 25.4998 18.7791 25.6578 19.0604 25.9391C19.3417 26.2204 19.4998 26.6019 19.4998 26.9998C19.4998 27.2102 19.4556 27.4182 19.37 27.6104C19.2844 27.8026 19.1593 27.9747 19.0029 28.1154C19.7341 28.2279 20.5123 28.4623 21.5248 28.7904C21.4873 28.4998 21.4498 28.2185 21.3841 27.8716C21.206 26.8498 20.9341 25.6123 20.5685 24.431C20.2029 23.2591 19.7529 22.1435 19.256 21.3841C18.7685 20.6341 18.3279 20.3435 17.9998 20.3435ZM29.9998 20.3435C29.6716 20.3435 29.231 20.6341 28.7435 21.3841C28.2466 22.1435 27.7966 23.2591 27.431 24.431C27.0654 25.6123 26.7935 26.8498 26.6154 27.8716C26.5498 28.2185 26.5123 28.4998 26.4748 28.7904C27.4873 28.4623 28.2654 28.2279 28.9966 28.1154C28.8402 27.9747 28.7151 27.8026 28.6295 27.6104C28.5439 27.4182 28.4997 27.2102 28.4998 26.9998C28.4998 26.6019 28.6578 26.2204 28.9391 25.9391C29.2204 25.6578 29.6019 25.4998 29.9998 25.4998C30.3976 25.4998 30.7791 25.6578 31.0604 25.9391C31.3417 26.2204 31.4998 26.6019 31.4998 26.9998C31.4998 27.2102 31.4556 27.4182 31.37 27.6104C31.2844 27.8026 31.1593 27.9747 31.0029 28.1154C31.7341 28.2279 32.5123 28.4623 33.5248 28.7904C33.4873 28.4998 33.4498 28.2185 33.3841 27.8716C33.206 26.8498 32.9341 25.6123 32.5685 24.431C32.2029 23.2591 31.7529 22.1435 31.256 21.3841C30.7685 20.6341 30.3279 20.3435 29.9998 20.3435ZM23.9998 29.9998C23.2041 29.9998 22.4411 30.3158 21.8785 30.8784C21.3158 31.441 20.9998 32.2041 20.9998 32.9998C21.0024 33.6339 21.2059 34.251 21.581 34.7623C21.6533 33.6762 22.1168 32.6531 22.8856 31.8826C23.6544 31.1121 24.6764 30.6463 25.7623 30.5716C25.2498 30.1998 24.6329 29.9996 23.9998 29.9998ZM15.5623 33.4685C13.5091 33.4685 12.1029 34.2466 11.4091 35.9529C13.781 41.7466 18.5716 45.656 23.9998 45.656C29.4279 45.656 34.2185 41.7466 36.5904 35.9529C35.8966 34.2466 34.4904 33.4685 32.4373 33.4685C31.2185 33.4685 29.7841 33.7966 28.2466 34.4623C27.9425 35.3473 27.37 36.1155 26.6088 36.6599C25.8476 37.2043 24.9356 37.4979 23.9998 37.4998C23.0639 37.4979 22.1519 37.2043 21.3907 36.6599C20.6296 36.1155 20.057 35.3473 19.7529 34.4623C18.2154 33.7966 16.781 33.4685 15.5623 33.4685ZM15.7216 35.5685C17.8498 39.1029 20.9341 40.781 23.9998 40.781C27.0654 40.781 30.1498 39.1029 32.2779 35.5685L33.7216 36.431C31.3498 40.3966 27.6841 42.4685 23.9998 42.4685C20.3154 42.4685 16.6498 40.3966 14.2779 36.431L15.7216 35.5685Z" fill="white"/>
</g>
</g>
</svg>
