<svg width="46" height="46" viewBox="0 0 46 46" fill="none" xmlns="http://www.w3.org/2000/svg">
<g filter="url(#filter0_bii_153_856)">
<circle cx="23" cy="23" r="21.5" stroke="#AD4123" stroke-width="3"/>
</g>
<path d="M22.3376 37.4481C17.5817 37.1755 13.7603 35.1152 11.3557 31.5271C8.76032 27.6543 8.26884 22.8173 10.0839 19.0107C10.6818 17.7569 11.3181 16.8503 12.3429 15.7926C12.8798 15.2384 13.1591 15.014 14.0256 14.4404C14.5971 14.0621 15.2062 13.6776 15.3793 13.5859L15.6939 13.4191L16.021 13.6789C16.4672 14.0333 16.8964 14.225 17.2452 14.2257L17.5312 14.2263L17.353 13.8749C16.916 13.0133 17.254 12.8582 18.4006 13.394C19.0693 13.7065 19.4496 13.8214 19.6278 13.7648C19.7327 13.7315 19.7483 13.6895 19.7203 13.5166C19.7017 13.4021 19.6298 13.2288 19.5605 13.1315C19.399 12.9047 19.4002 12.6871 19.5638 12.5398C19.6803 12.4349 19.7907 12.4239 20.6792 12.4291C23.9467 12.448 26.6868 13.407 28.7107 15.24C29.7318 16.1649 31.1051 18.0569 31.3829 18.9214C31.5378 19.4037 31.7142 19.4084 31.9663 18.9367L32.0829 18.7184L32.0385 19.0851C32.0141 19.2868 31.9944 19.7956 31.9947 20.2158C31.9951 20.8319 32.0166 21.0212 32.1056 21.1937C32.4293 21.8211 32.3712 24.0989 31.9996 25.3503C31.9483 25.5232 31.7824 25.9348 31.631 26.2651C31.1792 27.2508 31.1929 27.5301 31.6851 27.3677C31.8036 27.3286 31.9628 27.3164 32.039 27.3406C32.1533 27.3769 32.1125 27.4024 31.8046 27.4867C31.1281 27.6719 30.5903 28.0682 29.9771 28.8334C28.4908 30.6882 26.4476 31.6949 23.6433 31.9542C22.9385 32.0194 22.7996 32.0142 22.0542 31.8944C21.605 31.8222 20.9771 31.6966 20.6589 31.6153C20.3407 31.534 20.0705 31.4774 20.0584 31.4894C20.0233 31.5246 20.8125 31.9506 21.2576 32.1368C21.7328 32.3356 22.3713 32.4637 22.639 32.4138C22.8218 32.3798 22.8331 32.3918 23.091 32.8967C23.5127 33.7223 24.1003 34.2688 24.5724 34.2747C24.8369 34.278 24.5735 34.3778 24.0261 34.4816C21.83 34.8982 19.2302 33.9421 17.4432 32.0606C16.5311 31.1003 15.7137 29.4666 15.278 27.7332C15.2062 27.4475 15.1329 27.1587 15.1152 27.0915C15.0976 27.0243 15.2302 27.216 15.41 27.5176C15.8315 28.2245 16.4637 28.8744 16.9898 29.1414C17.519 29.4099 18.1804 29.4573 18.7259 29.2657C18.9245 29.196 19.1637 29.1389 19.2576 29.1389C19.5341 29.1389 20.3543 28.8521 20.731 28.6237C22.0098 27.8482 23.3827 27.5981 24.2607 27.9807L24.5947 28.1263L24.2581 28.1938C23.5855 28.3285 23.1839 28.6845 23.037 29.2759C22.9954 29.4434 22.9755 29.8246 22.9897 30.1788L23.0143 30.7918L21.6064 30.756C20.1058 30.7179 20.0067 30.7458 20.8718 30.9626C21.6345 31.1538 22.2133 31.2231 23.0404 31.2222C25.0544 31.22 26.6431 30.5827 28.2314 29.1396C29.7718 27.74 30.6777 25.8877 30.9189 23.6447C31.0108 22.7901 30.7463 22.1571 30.0269 21.5099C29.8189 21.3228 29.6639 21.1451 29.6825 21.1151C29.7364 21.0278 30.1404 21.1276 30.3885 21.2895C30.67 21.4732 30.7625 21.4793 30.709 21.3108C30.6868 21.2407 30.6048 20.9012 30.5269 20.5562C29.7996 17.3378 27.0115 14.8903 23.0942 14.0317C22.5421 13.9107 22.2894 13.8928 21.1458 13.894C20.021 13.8951 19.7454 13.9146 19.232 14.029C17.1954 14.483 15.3094 15.4862 13.9418 16.843C12.3683 18.4039 11.4749 19.9991 11.1195 21.8819C10.8946 23.0741 11.0103 23.2742 11.5881 22.6919C11.776 22.5024 11.9387 22.3561 11.9494 22.3669C11.9601 22.3776 11.8907 22.665 11.7951 23.0055C11.5061 24.035 11.4104 24.7586 11.4423 25.6722C11.4676 26.3949 11.4913 26.5352 11.667 26.9998C12.9149 30.3 15.3688 32.7462 18.734 34.0445C20.1495 34.5906 22.2597 34.8573 23.9798 34.7074C26.4612 34.4911 28.5122 33.6489 30.3096 32.108C31.1686 31.3717 31.9892 30.3643 32.7253 29.1426C33.383 28.051 33.768 27.022 34.0186 25.6858C34.1971 24.7341 34.1811 22.6835 33.9881 21.7774C33.5972 19.9417 32.7826 18.3282 31.4565 16.7627C30.5982 15.7494 28.8329 14.4799 27.4343 13.8701L26.9767 13.6705L26.7884 13.1081C26.6849 12.7987 26.5018 12.2774 26.3814 11.9497C26.2611 11.6219 26.1714 11.3538 26.182 11.3538C26.1926 11.3538 26.414 11.4521 26.674 11.5722C26.934 11.6923 27.1611 11.7761 27.1788 11.7585C27.2799 11.6573 26.3195 10.2097 25.7094 9.54365L25.3531 9.15466L25.5566 9.19297C25.9404 9.2652 27.1871 9.63701 27.7876 9.85832C28.5755 10.1487 30.2014 10.9465 30.894 11.3825C32.2982 12.2667 33.838 13.631 34.7242 14.7764C36.3218 16.8409 37.2342 19.0664 37.6559 21.9271C38.1646 25.3781 37.1154 29.0774 34.8651 31.767C34.2277 32.5288 32.7682 33.9122 32.1164 34.3724C30.0892 35.8035 27.802 36.7642 25.3018 37.2349C24.7805 37.333 23.3088 37.52 23.1936 37.5028C23.1598 37.4978 22.7746 37.4731 22.3376 37.4481V37.4481ZM19.3912 17.1751C19.1244 16.7804 18.9485 16.3732 18.9469 16.1466C18.9459 16.0087 18.9044 15.9362 18.7917 15.8759C18.7071 15.8306 18.5718 15.7069 18.491 15.601C18.3496 15.4156 17.9615 14.7011 17.9879 14.6747C17.995 14.6676 18.2162 14.7701 18.4796 14.9024C18.9985 15.1632 19.3164 15.2067 19.5431 15.0479C19.6179 14.9956 19.679 14.8992 19.679 14.8338C19.679 14.7558 19.8496 14.5882 20.1732 14.3483C20.6596 13.9876 20.6738 13.9818 21.0697 13.9818C21.2909 13.9818 21.6451 14.012 21.8567 14.0488C22.1617 14.102 22.2499 14.1425 22.2823 14.2448C22.3082 14.3263 22.2943 14.3833 22.2445 14.3999C22.2012 14.4144 22.0188 14.5035 21.8391 14.598C20.6008 15.2494 19.7921 16.2037 19.697 17.1257C19.6777 17.3126 19.6451 17.4655 19.6246 17.4654C19.6041 17.4654 19.499 17.3347 19.3912 17.1751V17.1751ZM16.6756 13.8588C16.5531 13.7942 16.3194 13.5925 16.1561 13.4108C15.8756 13.0986 15.8404 13.0789 15.5197 13.0534C15.333 13.0386 15.0499 12.9633 14.8905 12.8862C14.6003 12.7457 13.9339 12.24 13.9339 12.1602C13.9339 12.1369 14.1259 12.1178 14.3606 12.1178C14.7609 12.1178 14.7996 12.1054 14.9868 11.9182L15.1864 11.7186L15.0243 11.582C14.9352 11.5069 14.8273 11.3767 14.7846 11.2927C14.7032 11.1323 14.6035 10.6815 14.6494 10.6815C14.6641 10.6815 14.7911 10.7483 14.9315 10.8298C15.2598 11.0206 15.8829 11.132 16.3366 11.0811C16.6813 11.0425 17.5945 10.8306 17.6483 10.7768C17.663 10.7622 17.5793 10.6662 17.4625 10.5636C17.2479 10.3752 16.8065 9.61582 16.8065 9.43504C16.8065 9.36132 16.8812 9.39084 17.109 9.5545C17.4485 9.79839 17.9901 10.0092 18.2772 10.0092H18.4675L18.314 9.82682C18.1579 9.64122 17.9066 9.04795 17.9066 8.86482C17.9066 8.78472 17.9411 8.79624 18.0746 8.92085C18.9664 9.75309 20.4383 9.93532 21.6818 9.36744C22.4553 9.0142 23.6254 8.02268 24.0993 7.31899L24.3142 7L24.3798 7.23642C24.5126 7.71472 24.4414 8.07243 24.1519 8.38158L23.9878 8.55691L24.1405 8.51178C24.4884 8.40901 24.6777 8.30317 24.8105 8.13726L24.9508 7.96178L24.9208 8.51463C24.901 8.87797 24.849 9.16186 24.7689 9.34285L24.6471 9.61823L25.0664 9.68426C25.297 9.72057 25.5273 9.78481 25.5782 9.82701C25.653 9.88907 26.3235 10.8246 26.4786 11.0832C26.5002 11.1192 26.3824 11.0816 26.2168 10.9997C25.9898 10.8873 25.8634 10.8606 25.7023 10.8908L25.4888 10.9308L25.6939 11.2187C25.9835 11.6254 26.3136 12.3059 26.5223 12.9271C26.6205 13.2195 26.6915 13.4681 26.68 13.4796C26.6685 13.4911 26.4131 13.377 26.1124 13.226C25.367 12.8516 24.4507 12.5418 23.5329 12.3538C22.9097 12.2261 22.5758 12.1949 21.757 12.1877C20.7008 12.1785 19.6637 12.2313 19.4781 12.3038C19.3277 12.3626 19.2136 12.6042 19.1346 13.0317C19.0979 13.2305 19.0678 13.4015 19.0678 13.4117C19.0678 13.4219 18.9097 13.3586 18.7164 13.271C17.5184 12.7281 17.1017 12.611 16.9409 12.7717C16.8311 12.8815 16.8524 13.3295 16.9839 13.6756C17.0898 13.9541 17.0911 13.9816 16.9992 13.9791C16.9436 13.9777 16.798 13.9235 16.6756 13.8588V13.8588ZM21.4825 11.1787C21.6172 11.1175 21.8139 10.9689 21.9195 10.8486C22.1016 10.6412 22.1376 10.6276 22.6106 10.5863C22.885 10.5624 23.0871 10.5212 23.0597 10.4949C22.9826 10.4207 22.3234 10.3148 21.9389 10.3148C21.5557 10.3148 20.7737 10.4957 20.4636 10.6561L20.2631 10.7597L20.5248 10.9919C20.7519 11.1935 20.8602 11.2418 21.1764 11.2822C21.21 11.2865 21.3477 11.2399 21.4825 11.1787V11.1787Z" fill="#AD4123"/>
<g filter="url(#filter1_bii_153_856)">
<path d="M22.3376 37.4481C17.5817 37.1755 13.7603 35.1152 11.3558 31.5271C8.76038 27.6543 8.2689 22.8173 10.084 19.0107C10.6819 17.7569 11.3182 16.8503 12.3429 15.7926C12.8799 15.2384 13.1591 15.014 14.0257 14.4404C14.5971 14.0621 15.2063 13.6776 15.3793 13.5859L15.694 13.4191L16.0211 13.6789C16.4673 14.0333 16.8965 14.225 17.2453 14.2257L17.5312 14.2263L17.353 13.8749C16.916 13.0133 17.2541 12.8582 18.4007 13.394C19.0694 13.7065 19.4496 13.8214 19.6279 13.7648C19.7328 13.7315 19.7484 13.6895 19.7203 13.5166C19.7017 13.4021 19.6298 13.2288 19.5606 13.1315C19.3991 12.9047 19.4003 12.6871 19.5638 12.5398C19.6803 12.4349 19.7908 12.4239 20.6792 12.4291C23.9467 12.448 26.6869 13.407 28.7108 15.24C29.7319 16.1649 31.1052 18.0569 31.3829 18.9214C31.5379 19.4037 31.7143 19.4084 31.9663 18.9367L32.083 18.7184L32.0386 19.0851C32.0142 19.2868 31.9944 19.7956 31.9947 20.2158C31.9952 20.8319 32.0167 21.0212 32.1057 21.1937C32.4294 21.8211 32.3713 24.0989 31.9997 25.3503C31.9483 25.5232 31.7825 25.9348 31.6311 26.2651C31.1792 27.2508 31.1929 27.5301 31.6851 27.3677C31.8036 27.3286 31.9629 27.3164 32.0391 27.3406C32.1534 27.3769 32.1125 27.4024 31.8046 27.4867C31.1281 27.6719 30.5903 28.0682 29.9772 28.8334C28.4908 30.6882 26.4477 31.6949 23.6434 31.9542C22.9386 32.0194 22.7997 32.0142 22.0543 31.8944C21.6051 31.8222 20.9772 31.6966 20.659 31.6153C20.3408 31.534 20.0705 31.4774 20.0585 31.4894C20.0233 31.5246 20.8125 31.9506 21.2577 32.1368C21.7328 32.3356 22.3713 32.4637 22.6391 32.4138C22.8219 32.3798 22.8332 32.3918 23.0911 32.8967C23.5128 33.7223 24.1003 34.2688 24.5724 34.2747C24.837 34.278 24.5735 34.3778 24.0262 34.4816C21.8301 34.8982 19.2303 33.9421 17.4433 32.0606C16.5312 31.1003 15.7137 29.4666 15.278 27.7332C15.2062 27.4475 15.133 27.1587 15.1153 27.0915C15.0976 27.0243 15.2303 27.216 15.4101 27.5176C15.8315 28.2245 16.4638 28.8744 16.9899 29.1414C17.519 29.4099 18.1805 29.4573 18.726 29.2657C18.9246 29.196 19.1638 29.1389 19.2576 29.1389C19.5342 29.1389 20.3543 28.8521 20.7311 28.6237C22.0099 27.8482 23.3828 27.5981 24.2607 27.9807L24.5948 28.1263L24.2582 28.1938C23.5856 28.3285 23.1839 28.6845 23.0371 29.2759C22.9955 29.4434 22.9755 29.8246 22.9897 30.1788L23.0144 30.7918L21.6064 30.756C20.1059 30.7179 20.0068 30.7458 20.8719 30.9626C21.6346 31.1538 22.2134 31.2231 23.0405 31.2222C25.0545 31.22 26.6432 30.5827 28.2314 29.1396C29.7718 27.74 30.6778 25.8877 30.919 23.6447C31.0109 22.7901 30.7464 22.1571 30.0269 21.5099C29.8189 21.3228 29.664 21.1451 29.6825 21.1151C29.7365 21.0278 30.1404 21.1276 30.3885 21.2895C30.6701 21.4732 30.7626 21.4793 30.7091 21.3108C30.6869 21.2407 30.6049 20.9012 30.5269 20.5562C29.7997 17.3378 27.0116 14.8903 23.0943 14.0317C22.5422 13.9107 22.2895 13.8928 21.1459 13.894C20.0211 13.8951 19.7454 13.9146 19.232 14.029C17.1955 14.483 15.3095 15.4862 13.9419 16.843C12.3684 18.4039 11.4749 19.9991 11.1196 21.8819C10.8946 23.0741 11.0104 23.2742 11.5881 22.6919C11.7761 22.5024 11.9387 22.3561 11.9495 22.3669C11.9602 22.3776 11.8908 22.665 11.7952 23.0055C11.5062 24.035 11.4105 24.7586 11.4424 25.6722C11.4676 26.3949 11.4914 26.5352 11.6671 26.9998C12.9149 30.3 15.3689 32.7462 18.734 34.0445C20.1495 34.5906 22.2598 34.8573 23.9799 34.7074C26.4612 34.4911 28.5123 33.6489 30.3097 32.108C31.1686 31.3717 31.9893 30.3643 32.7254 29.1426C33.3831 28.051 33.7681 27.022 34.0187 25.6858C34.1972 24.7341 34.1812 22.6835 33.9882 21.7774C33.5972 19.9417 32.7826 18.3282 31.4566 16.7627C30.5983 15.7494 28.8329 14.4799 27.4344 13.8701L26.9768 13.6705L26.7885 13.1081C26.685 12.7987 26.5018 12.2774 26.3815 11.9497C26.2612 11.6219 26.1714 11.3538 26.1821 11.3538C26.1927 11.3538 26.4141 11.4521 26.6741 11.5722C26.934 11.6923 27.1612 11.7761 27.1788 11.7585C27.28 11.6573 26.3196 10.2097 25.7095 9.54365L25.3531 9.15466L25.5567 9.19297C25.9404 9.2652 27.1871 9.63701 27.7877 9.85832C28.5756 10.1487 30.2015 10.9465 30.8941 11.3825C32.2982 12.2667 33.838 13.631 34.7243 14.7764C36.3218 16.8409 37.2342 19.0664 37.6559 21.9271C38.1646 25.3781 37.1155 29.0774 34.8652 31.767C34.2278 32.5288 32.7683 33.9122 32.1164 34.3724C30.0893 35.8035 27.8021 36.7642 25.3018 37.2349C24.7806 37.333 23.3088 37.52 23.1937 37.5028C23.1598 37.4978 22.7746 37.4731 22.3376 37.4481V37.4481ZM19.3912 17.1751C19.1245 16.7804 18.9486 16.3732 18.947 16.1466C18.946 16.0087 18.9044 15.9362 18.7918 15.8759C18.7072 15.8306 18.5719 15.7069 18.4911 15.601C18.3496 15.4156 17.9616 14.7011 17.988 14.6747C17.995 14.6676 18.2163 14.7701 18.4797 14.9024C18.9986 15.1632 19.3165 15.2067 19.5432 15.0479C19.6179 14.9956 19.679 14.8992 19.679 14.8338C19.679 14.7558 19.8497 14.5882 20.1733 14.3483C20.6597 13.9876 20.6738 13.9818 21.0697 13.9818C21.291 13.9818 21.6451 14.012 21.8567 14.0488C22.1618 14.102 22.2499 14.1425 22.2824 14.2448C22.3083 14.3263 22.2944 14.3833 22.2446 14.3999C22.2013 14.4144 22.0189 14.5035 21.8392 14.598C20.6009 15.2494 19.7922 16.2037 19.697 17.1257C19.6777 17.3126 19.6452 17.4655 19.6247 17.4654C19.6041 17.4654 19.4991 17.3347 19.3912 17.1751V17.1751ZM16.6756 13.8588C16.5532 13.7942 16.3194 13.5925 16.1561 13.4108C15.8756 13.0986 15.8404 13.0789 15.5197 13.0534C15.333 13.0386 15.0499 12.9633 14.8906 12.8862C14.6003 12.7457 13.934 12.24 13.934 12.1602C13.934 12.1369 14.126 12.1178 14.3607 12.1178C14.7609 12.1178 14.7996 12.1054 14.9869 11.9182L15.1865 11.7186L15.0244 11.582C14.9352 11.5069 14.8274 11.3767 14.7847 11.2927C14.7033 11.1323 14.6035 10.6815 14.6495 10.6815C14.6642 10.6815 14.7911 10.7483 14.9316 10.8298C15.2599 11.0206 15.8829 11.132 16.3366 11.0811C16.6813 11.0425 17.5946 10.8306 17.6484 10.7768C17.663 10.7622 17.5794 10.6662 17.4626 10.5636C17.2479 10.3752 16.8065 9.61582 16.8065 9.43504C16.8065 9.36132 16.8813 9.39084 17.1091 9.5545C17.4486 9.79839 17.9902 10.0092 18.2772 10.0092H18.4676L18.3141 9.82682C18.1579 9.64122 17.9066 9.04795 17.9066 8.86482C17.9066 8.78472 17.9412 8.79624 18.0747 8.92085C18.9665 9.75309 20.4383 9.93532 21.6818 9.36744C22.4553 9.0142 23.6255 8.02268 24.0994 7.31899L24.3142 7L24.3799 7.23642C24.5127 7.71472 24.4415 8.07243 24.152 8.38158L23.9878 8.55691L24.1406 8.51178C24.4885 8.40901 24.6778 8.30317 24.8105 8.13726L24.9509 7.96178L24.9208 8.51463C24.9011 8.87797 24.849 9.16186 24.769 9.34285L24.6472 9.61823L25.0665 9.68426C25.2971 9.72057 25.5274 9.78481 25.5782 9.82701C25.653 9.88907 26.3236 10.8246 26.4787 11.0832C26.5003 11.1192 26.3825 11.0816 26.2169 10.9997C25.9899 10.8873 25.8634 10.8606 25.7024 10.8908L25.4889 10.9308L25.6939 11.2187C25.9836 11.6254 26.3136 12.3059 26.5223 12.9271C26.6206 13.2195 26.6916 13.4681 26.6801 13.4796C26.6686 13.4911 26.4131 13.377 26.1124 13.226C25.3671 12.8516 24.4507 12.5418 23.533 12.3538C22.9098 12.2261 22.5759 12.1949 21.757 12.1877C20.7008 12.1785 19.6638 12.2313 19.4781 12.3038C19.3277 12.3626 19.2137 12.6042 19.1347 13.0317C19.0979 13.2305 19.0679 13.4015 19.0679 13.4117C19.0679 13.4219 18.9097 13.3586 18.7164 13.271C17.5185 12.7281 17.1017 12.611 16.941 12.7717C16.8312 12.8815 16.8525 13.3295 16.984 13.6756C17.0898 13.9541 17.0912 13.9816 16.9993 13.9791C16.9437 13.9777 16.798 13.9235 16.6756 13.8588V13.8588ZM21.4825 11.1787C21.6173 11.1175 21.814 10.9689 21.9196 10.8486C22.1017 10.6412 22.1377 10.6276 22.6106 10.5863C22.8851 10.5624 23.0872 10.5212 23.0598 10.4949C22.9827 10.4207 22.3234 10.3148 21.9389 10.3148C21.5558 10.3148 20.7738 10.4957 20.4636 10.6561L20.2632 10.7597L20.5249 10.9919C20.752 11.1935 20.8603 11.2418 21.1764 11.2822C21.21 11.2865 21.3478 11.2399 21.4825 11.1787V11.1787Z" fill="#AD4123" fill-opacity="0.2"/>
</g>
<defs>
<filter id="filter0_bii_153_856" x="-0.625693" y="-0.625693" width="47.2514" height="47.2514" filterUnits="userSpaceOnUse" color-interpolation-filters="sRGB">
<feFlood flood-opacity="0" result="BackgroundImageFix"/>
<feGaussianBlur in="BackgroundImage" stdDeviation="0.250277"/>
<feComposite in2="SourceAlpha" operator="in" result="effect1_backgroundBlur_153_856"/>
<feBlend mode="normal" in="SourceGraphic" in2="effect1_backgroundBlur_153_856" result="shape"/>
<feColorMatrix in="SourceAlpha" type="matrix" values="0 0 0 0 0 0 0 0 0 0 0 0 0 0 0 0 0 0 127 0" result="hardAlpha"/>
<feOffset dx="-0.625693" dy="0.625693"/>
<feGaussianBlur stdDeviation="0.312846"/>
<feComposite in2="hardAlpha" operator="arithmetic" k2="-1" k3="1"/>
<feColorMatrix type="matrix" values="0 0 0 0 1 0 0 0 0 1 0 0 0 0 1 0 0 0 0.6 0"/>
<feBlend mode="normal" in2="shape" result="effect2_innerShadow_153_856"/>
<feColorMatrix in="SourceAlpha" type="matrix" values="0 0 0 0 0 0 0 0 0 0 0 0 0 0 0 0 0 0 127 0" result="hardAlpha"/>
<feOffset dx="0.625693" dy="-0.625693"/>
<feGaussianBlur stdDeviation="0.312846"/>
<feComposite in2="hardAlpha" operator="arithmetic" k2="-1" k3="1"/>
<feColorMatrix type="matrix" values="0 0 0 0 0.569882 0 0 0 0 0.214118 0 0 0 0 0.115294 0 0 0 0.6 0"/>
<feBlend mode="normal" in2="effect2_innerShadow_153_856" result="effect3_innerShadow_153_856"/>
</filter>
<filter id="filter1_bii_153_856" x="8.60482" y="6.60476" width="29.5725" height="31.2944" filterUnits="userSpaceOnUse" color-interpolation-filters="sRGB">
<feFlood flood-opacity="0" result="BackgroundImageFix"/>
<feGaussianBlur in="BackgroundImage" stdDeviation="0.158096"/>
<feComposite in2="SourceAlpha" operator="in" result="effect1_backgroundBlur_153_856"/>
<feBlend mode="normal" in="SourceGraphic" in2="effect1_backgroundBlur_153_856" result="shape"/>
<feColorMatrix in="SourceAlpha" type="matrix" values="0 0 0 0 0 0 0 0 0 0 0 0 0 0 0 0 0 0 127 0" result="hardAlpha"/>
<feOffset dx="-0.39524" dy="0.39524"/>
<feGaussianBlur stdDeviation="0.19762"/>
<feComposite in2="hardAlpha" operator="arithmetic" k2="-1" k3="1"/>
<feColorMatrix type="matrix" values="0 0 0 0 1 0 0 0 0 1 0 0 0 0 1 0 0 0 0.6 0"/>
<feBlend mode="normal" in2="shape" result="effect2_innerShadow_153_856"/>
<feColorMatrix in="SourceAlpha" type="matrix" values="0 0 0 0 0 0 0 0 0 0 0 0 0 0 0 0 0 0 127 0" result="hardAlpha"/>
<feOffset dx="0.39524" dy="-0.39524"/>
<feGaussianBlur stdDeviation="0.19762"/>
<feComposite in2="hardAlpha" operator="arithmetic" k2="-1" k3="1"/>
<feColorMatrix type="matrix" values="0 0 0 0 0.569882 0 0 0 0 0.214118 0 0 0 0 0.115294 0 0 0 0.6 0"/>
<feBlend mode="normal" in2="effect2_innerShadow_153_856" result="effect3_innerShadow_153_856"/>
</filter>
</defs>
</svg>
