<svg width="56" height="70" viewBox="0 0 56 70" fill="none" xmlns="http://www.w3.org/2000/svg">
<path d="M0 3.65243C0 1.63525 1.63525 0 3.65243 0H52.3476C54.3648 0 56 1.63525 56 3.65243V66.3476C56 68.3648 54.3648 70 52.3476 70H3.65243C1.63525 70 0 68.3648 0 66.3476V3.65243Z" fill="#AD4123"/>
<path d="M40.4717 45.75H20.4512C20.0488 45.75 19.6737 45.5469 19.4515 45.2101L13.1953 35.6549C12.9349 35.2572 12.9349 34.7436 13.1953 34.3459L19.4515 24.7907C19.6737 24.4539 20.0488 24.2508 20.4512 24.2508H40.4717C41.1322 24.2508 41.6661 24.7847 41.6661 25.4452V44.5556C41.6661 45.2161 41.1322 45.75 40.4717 45.75ZM35.3441 29.3784C35.1112 29.1455 34.8055 29.0284 34.4997 29.0284C34.1939 29.0284 33.8881 29.1455 33.6552 29.3784L29.7221 33.3116L25.7889 29.3784C25.556 29.1455 25.2503 29.0284 24.9445 29.0284C24.6387 29.0284 24.3329 29.1455 24.1 29.3784C23.633 29.8454 23.633 30.6003 24.1 31.0673L28.0332 35.0004L24.1 38.9336C23.633 39.4006 23.633 40.1555 24.1 40.6225C24.567 41.0894 25.3219 41.0894 25.7889 40.6225L29.722 36.6893L33.6552 40.6225C34.1222 41.0894 34.877 41.0894 35.344 40.6225C35.811 40.1555 35.811 39.4006 35.344 38.9336L31.4109 35.0004L35.3441 31.0673C35.8111 30.6003 35.8111 29.8454 35.3441 29.3784Z" fill="white"/>
<path d="M3.65243 3H52.3476V-3H3.65243V3ZM53 3.65243V66.3476H59V3.65243H53ZM52.3476 67H3.65243V73H52.3476V67ZM3 66.3476V3.65243H-3V66.3476H3ZM3.65243 67C3.2921 67 3 66.7079 3 66.3476H-3C-3 70.0216 -0.0216054 73 3.65243 73V67ZM53 66.3476C53 66.7079 52.7079 67 52.3476 67V73C56.0216 73 59 70.0216 59 66.3476H53ZM52.3476 3C52.7079 3 53 3.2921 53 3.65243H59C59 -0.0216058 56.0216 -3 52.3476 -3V3ZM3.65243 -3C-0.0216038 -3 -3 -0.021609 -3 3.65243H3C3 3.2921 3.2921 3 3.65243 3V-3Z" fill="#AB7F39"/>
</svg>
