<svg width="56" height="70" viewBox="0 0 56 70" fill="none" xmlns="http://www.w3.org/2000/svg">
<path d="M0 3.65243C0 1.63525 1.63525 0 3.65243 0H52.3476C54.3648 0 56 1.63525 56 3.65243V66.3476C56 68.3648 54.3648 70 52.3476 70H3.65243C1.63525 70 0 68.3648 0 66.3476V3.65243Z" fill="#AD4123"/>
<path d="M15.3496 39H10.498V30.4336H15.3496V31.6172H11.9043V33.9434H15.1328V35.1211H11.9043V37.8105H15.3496V39ZM24.3496 39H22.6211L18.4258 32.1621H18.373C18.3887 32.3926 18.4023 32.6367 18.4141 32.8945C18.4297 33.1523 18.4414 33.418 18.4492 33.6914C18.4609 33.9648 18.4707 34.2422 18.4785 34.5234V39H17.2012V30.4336H18.918L23.1074 37.2246H23.1484C23.1406 37.0254 23.1309 36.7969 23.1191 36.5391C23.1074 36.2812 23.0957 36.0156 23.084 35.7422C23.0762 35.4648 23.0703 35.1973 23.0664 34.9395V30.4336H24.3496V39ZM29.5703 39H28.1582V31.6289H25.6504V30.4336H32.0723V31.6289H29.5703V39ZM38.2363 39H33.3848V30.4336H38.2363V31.6172H34.791V33.9434H38.0195V35.1211H34.791V37.8105H38.2363V39ZM42.4961 30.4336C43.2344 30.4336 43.8438 30.5234 44.3242 30.7031C44.8086 30.8828 45.168 31.1562 45.4023 31.5234C45.6406 31.8906 45.7598 32.3574 45.7598 32.9238C45.7598 33.3457 45.6816 33.7051 45.5254 34.002C45.3691 34.2988 45.1641 34.5449 44.9102 34.7402C44.6562 34.9355 44.3848 35.0918 44.0957 35.209L46.5273 39H44.9395L42.8711 35.5664H41.4941V39H40.0879V30.4336H42.4961ZM42.4023 31.6055H41.4941V34.4062H42.4668C43.1191 34.4062 43.5918 34.2852 43.8848 34.043C44.1816 33.8008 44.3301 33.4434 44.3301 32.9707C44.3301 32.4746 44.1719 32.123 43.8555 31.916C43.543 31.709 43.0586 31.6055 42.4023 31.6055Z" fill="white"/>
<path d="M3.65243 3H52.3476V-3H3.65243V3ZM53 3.65243V66.3476H59V3.65243H53ZM52.3476 67H3.65243V73H52.3476V67ZM3 66.3476V3.65243H-3V66.3476H3ZM3.65243 67C3.2921 67 3 66.7079 3 66.3476H-3C-3 70.0216 -0.0216054 73 3.65243 73V67ZM53 66.3476C53 66.7079 52.7079 67 52.3476 67V73C56.0216 73 59 70.0216 59 66.3476H53ZM52.3476 3C52.7079 3 53 3.2921 53 3.65243H59C59 -0.0216058 56.0216 -3 52.3476 -3V3ZM3.65243 -3C-0.0216038 -3 -3 -0.021609 -3 3.65243H3C3 3.2921 3.2921 3 3.65243 3V-3Z" fill="#AB7F39"/>
</svg>
