<svg width="56" height="70" viewBox="0 0 56 70" fill="none" xmlns="http://www.w3.org/2000/svg">
<g clip-path="url(#clip0_161_956)">
<path d="M35.6203 23.3311C36.0058 23.4553 36.4652 23.8076 36.6127 24.0928C36.8038 24.4719 36.7166 24.7739 36.1232 25.7839C35.6035 26.663 35.4191 27.1227 35.3722 27.6394C35.3252 28.1695 35.3923 28.5621 35.7041 29.5922C35.9053 30.2599 35.9522 30.5485 35.9254 30.9511C35.8918 31.4276 35.8181 31.894 35.6974 32.3772C35.5599 32.9308 35.5599 33.1959 35.694 33.4072C35.7443 33.4911 35.8449 33.6086 35.9153 33.6656C36.036 33.7596 36.0662 33.7696 36.2841 33.7696C36.492 33.7696 36.5524 33.7528 36.7334 33.6555C37.1726 33.4173 37.7091 32.867 38.1718 32.1758C38.6345 31.4813 38.7585 31.0082 39.1072 28.6359C39.3285 27.116 39.3754 26.8408 39.4626 26.4919C39.6738 25.6631 40.331 24.9887 40.9814 24.9383C41.538 24.8914 42.0141 25.2504 42.3527 25.9684C42.4265 26.1228 42.507 26.3275 42.5338 26.4214C42.6042 26.6663 42.6377 27.5723 42.6075 28.2501C42.574 28.9379 42.507 29.25 42.2354 29.9311C41.7626 31.1323 41.1122 31.8873 40.0125 32.508C39.4022 32.8536 39.0334 33.1589 38.5875 33.679C38.1986 34.1354 37.9874 34.444 37.756 34.9004C37.3336 35.7291 37.2766 36.2257 37.5683 36.5646C37.7728 36.8062 38.3897 37.0646 38.6546 37.021C38.8792 36.984 39.4358 36.7995 39.7576 36.6586C40.0628 36.5244 40.3243 36.3801 41.1357 35.9036C41.6822 35.5849 41.89 35.5144 42.2924 35.5144C42.507 35.5144 42.6712 35.5312 42.745 35.5614C43.1876 35.7459 43.382 36.0915 43.315 36.5646C43.2747 36.8498 43.1775 37.0411 42.9395 37.2961C42.6645 37.5914 42.4902 37.6685 42.0409 37.6954C41.5916 37.7222 40.4617 37.833 39.9722 37.8967C39.5598 37.9504 39.4022 38.0108 39.1877 38.2054C38.8356 38.5242 38.8423 38.9637 39.2044 39.2288C39.4928 39.4435 40.2103 39.7187 41.4642 40.0911C42.8624 40.5105 43.4491 40.6078 45.2596 40.732C46.8053 40.8393 47.4825 40.9299 47.8983 41.0843C48.884 41.4567 49.6719 42.1949 49.8429 42.9096C49.9133 43.2116 49.9334 44.0236 49.8764 44.339C49.7323 45.1208 49.1422 46.0166 48.5856 46.2985C48.2436 46.4696 47.9955 46.5166 47.3719 46.5166C46.8824 46.52 46.7885 46.5099 46.5672 46.4428C46.071 46.2884 45.6519 45.9865 45.2194 45.4764C45.0819 45.312 44.7265 44.8523 44.4315 44.4564C43.4558 43.1445 42.9361 42.6546 42.4634 42.5908C41.7559 42.4935 41.4374 43.48 41.8733 44.4195C42.2354 45.1912 42.8456 45.6543 44.3041 46.2515C44.9478 46.5132 45.7257 46.8991 46.0475 47.1105C46.1951 47.2078 46.4465 47.4158 46.6074 47.5735C46.9327 47.8956 46.9696 47.9762 46.9696 48.3587C46.9696 48.7781 46.7717 49.1875 46.3795 49.5834C45.719 50.2444 45.0383 50.0666 44.0157 48.9694C43.5363 48.4526 42.6813 47.3487 42.222 46.6542C41.9403 46.2247 41.7157 45.9965 41.4508 45.8757C41.2061 45.765 40.8373 45.7751 40.5891 45.8992C40.1566 46.1173 39.761 46.7884 39.761 47.3017C39.761 47.4259 39.8146 47.8051 39.8783 48.1439C40.0259 48.9157 40.0292 49.0901 39.8985 49.2915C39.7241 49.5599 39.5162 49.7075 39.1441 49.8216C38.7484 49.9424 38.2388 49.8921 37.9941 49.7042C37.8801 49.6169 37.7258 49.3519 37.6487 49.1036C37.528 48.7211 37.3134 48.4325 37.072 48.3352C36.9044 48.2647 36.8005 48.2681 36.6429 48.3486C36.4853 48.4291 36.4082 48.5332 36.4082 48.6674C36.4082 48.8687 37.1793 51.5966 37.5884 52.8448C38.326 55.0962 38.9161 56.3142 40.8808 59.6662C41.3737 60.505 41.5816 60.9211 41.6956 61.2902C41.7794 61.5653 41.7861 61.6291 41.7861 62.1894C41.7861 62.7565 41.7794 62.8102 41.6956 63.0618C41.5548 63.4913 41.424 63.6792 41.1893 63.8C41.0015 63.894 40.9647 63.9007 40.6361 63.8973C40.331 63.8973 40.2405 63.8839 39.9923 63.7966C38.9027 63.4141 38.3159 62.6693 38.0209 61.3003C37.9237 60.8473 37.8432 60.3541 37.632 58.8743C37.3067 56.5927 37.1793 55.8445 36.9078 54.6835C36.2338 51.7509 35.2649 49.523 34.6681 49.523C34.42 49.523 34.0176 49.8921 33.8165 50.3081C33.6555 50.6336 33.6119 50.8752 33.6119 51.402C33.6153 51.9992 33.6958 52.4254 33.9908 53.3649C34.0981 53.7138 34.2121 54.0863 34.2389 54.1869C34.5675 55.3546 34.373 56.378 33.7628 56.6833C33.5281 56.8041 33.2733 56.841 32.7402 56.841C32.1602 56.841 31.9121 56.8007 31.5902 56.6498C31.1376 56.435 31.0604 56.2035 31.0873 55.1768C31.1007 54.8043 31.1275 54.4453 31.1577 54.3178C31.218 54.0359 31.4628 53.4957 31.7914 52.9018C32.1903 52.1737 32.2004 52.1469 32.197 51.553C32.1937 51.1168 32.1836 51.0128 32.1099 50.7745C31.8886 50.0464 31.3756 49.5968 30.7956 49.6304C30.5642 49.6438 30.5642 49.6438 30.4033 49.8216C30.2859 49.9458 30.1652 50.1471 29.9909 50.5061C29.213 52.1066 28.6799 54.0259 28.4318 56.133C28.3581 56.7672 28.348 56.8947 28.2776 57.861C28.1938 59.0455 28.1033 59.6293 27.9256 60.1662C27.6842 60.8842 27.2181 61.5989 26.8795 61.7734C26.6917 61.8707 26.4436 61.8573 26.1955 61.7398C25.6691 61.4915 25.4713 61.1191 25.4713 60.3608C25.4746 59.6964 25.5685 59.4079 26.333 57.8107C27.0739 56.2639 27.2215 55.9082 27.6439 54.6902C27.949 53.8145 28.1737 53.0662 28.281 52.5596C28.4117 51.9456 28.4151 51.2611 28.2944 50.8014C28.1334 50.1907 27.9189 49.9055 27.5567 49.8283C27.2852 49.7679 27.1175 49.7814 26.9264 49.8787C26.6481 50.0162 26.5073 50.2545 26.2659 50.9993C25.8669 52.2173 25.4646 53.0092 24.9818 53.5226C24.737 53.7809 24.5493 53.8849 24.3313 53.8849C24.0497 53.8849 23.6172 53.6937 23.4127 53.4756C23.2383 53.2944 23.2182 53.1703 23.2517 52.5764C23.2685 52.2912 23.2819 51.8147 23.2819 51.5194C23.2819 51.0262 23.2752 50.9691 23.2014 50.8215C23.0237 50.4591 22.5208 50.2276 21.9073 50.2276C21.3574 50.2276 20.831 50.439 20.4186 50.8182C20.033 51.1772 19.8252 51.4993 19.6642 51.9892C19.4798 52.5629 19.3625 53.328 19.2049 54.9754C19.1579 55.472 19.1009 55.6901 18.9601 55.8713C18.712 56.2001 18.3633 56.3679 17.8772 56.3947C17.5184 56.4115 17.2334 56.3411 16.8546 56.1431C16.2745 55.8378 16.1169 55.5257 16.1907 54.8077C16.3081 53.6736 16.6668 52.9656 18.1923 50.8383C18.8126 49.9726 18.9367 49.7713 19.0775 49.4056C19.2686 48.9157 19.2384 48.3218 19.0004 47.8654C18.8562 47.597 18.3834 47.1172 18.1387 46.9964C17.9845 46.9192 17.9107 46.9058 17.6794 46.9058C16.8847 46.9058 15.3827 47.5601 14.7222 48.1943C14.1723 48.7177 13.9175 49.2646 13.5722 50.647C13.3777 51.4288 13.2536 51.8214 13.0491 52.3079C12.7339 53.0428 12.4054 53.5494 11.9326 54.0259C11.6242 54.3312 11.5303 54.4017 11.2755 54.5292C10.9838 54.6701 10.9704 54.6735 10.6418 54.6735C10.33 54.6735 10.2897 54.6667 10.0886 54.5661C9.69965 54.3748 9.31408 53.9051 9.1699 53.4521C9.0425 53.0495 9.01232 52.7643 8.99221 51.7677C8.96538 50.4088 9.01568 49.9256 9.27049 49.1371C9.54207 48.2983 9.87735 47.7413 10.454 47.1742C11.0844 46.5569 11.7885 46.1509 12.4657 46.0133C12.8815 45.9294 13.6191 45.963 14.179 46.0871C14.5378 46.1676 14.6719 46.1811 15.1178 46.1811C15.5872 46.1811 15.6643 46.171 15.9325 46.0905C16.2946 45.9797 16.7875 45.7516 17.049 45.5737C17.6861 45.1409 17.9409 44.4967 17.6827 43.98C17.5486 43.7048 17.3206 43.4666 16.8713 43.121C16.4321 42.7888 16.1974 42.5539 16.0935 42.3526C15.9225 42.0171 15.9359 41.4634 16.1236 41.0776C16.2443 40.8293 16.4623 40.6246 17.0088 40.232C17.6726 39.7589 17.8537 39.4804 17.8269 38.9637C17.7933 38.3061 17.4514 37.9705 16.1002 37.2693C14.169 36.266 12.8144 35.8634 11.195 35.8097C10.5077 35.7862 9.97458 35.8264 9.0492 35.9741C8.28141 36.0949 7.90925 36.1083 7.75166 36.0244C7.53373 35.907 7.31244 35.5547 7.13475 35.0245C7.03416 34.736 7.0241 34.6756 7.0241 34.2897C7.0241 33.9542 7.04087 33.8334 7.09451 33.679C7.30574 33.0751 7.77849 32.659 8.42893 32.4979C9.60242 32.206 11.4532 32.4577 12.7071 33.0818C13.5051 33.4777 15.0306 34.5481 16.7808 35.9372C18.0415 36.9404 18.4572 37.1585 19.2518 37.2391C20.0129 37.3162 20.7807 37.0746 21.0992 36.6552C21.3507 36.3264 21.3909 35.9842 21.2166 35.6386C20.9986 35.199 20.4655 34.887 19.4664 34.6051C18.5075 34.3367 17.7431 33.726 17.381 32.9375C17.1664 32.4644 17.1429 32.0919 17.2971 31.488C17.4581 30.8471 17.5553 30.7062 17.9241 30.5619C18.2057 30.4545 18.4974 30.4612 18.7455 30.5787C19.054 30.723 19.2887 30.9243 19.9157 31.5618C20.6064 32.2698 20.8008 32.4375 21.0959 32.5919C21.4882 32.7966 21.8536 32.7865 22.2928 32.5583C22.7857 32.3033 23.1679 31.8638 23.2853 31.4309C23.3523 31.1759 23.3423 30.6827 23.2651 30.3002C23.1713 29.8304 22.9768 29.2466 22.5208 28.0487C22.0078 26.6999 21.9475 26.4784 21.9676 25.9852C21.9911 25.4349 22.1688 25.0289 22.5242 24.727C22.893 24.4082 23.3221 24.2773 23.986 24.2773C25.0153 24.2773 25.5015 24.586 25.9474 25.5155C26.2827 26.2201 26.5174 27.0187 26.5174 27.4716C26.5174 27.8407 26.447 28.1393 26.2257 28.6863C25.8368 29.6459 25.7932 29.9009 25.9541 30.2297C26.0849 30.4914 26.2793 30.7028 26.5677 30.8974C26.8962 31.1155 27.141 31.2061 27.4763 31.2263C27.8183 31.2498 27.9323 31.2028 28.3447 30.8672C28.5089 30.733 28.7068 30.5955 28.7805 30.5619C28.9549 30.4847 29.4611 30.4176 29.7059 30.4411C30.2021 30.4847 30.6547 30.8706 31.2616 31.7564C31.7947 32.5349 31.8517 32.5818 32.3177 32.6053C32.8006 32.6288 33.2062 32.4845 33.3571 32.2329C33.4443 32.0919 33.4812 31.8839 33.5214 31.3269C33.5616 30.78 33.6823 30.1559 33.8366 29.6996C33.9003 29.5117 34.0813 29.1191 34.2557 28.797C34.5742 28.2031 34.7418 27.8239 34.8022 27.5555C34.8257 27.4582 34.8491 26.6563 34.8625 25.4987C34.886 23.4016 34.8793 23.4553 35.1006 23.3445C35.238 23.2741 35.4292 23.2707 35.6203 23.3311Z" fill="#F40101"/>
</g>
<defs>
<clipPath id="clip0_161_956">
<rect width="42.9161" height="40.6333" fill="white" transform="matrix(-1 0 0 1 49.9205 23.2842)"/>
</clipPath>
</defs>
</svg>
