<svg width="56" height="70" viewBox="0 0 56 70" fill="none" xmlns="http://www.w3.org/2000/svg">
<circle cx="38" cy="54" r="6" fill="white"/>
<path d="M29.695 45.5341H34.0466V44.4517C34.0466 43.4639 34.8474 42.6609 35.8374 42.6609H40.1582C41.1482 42.6609 41.949 43.4639 41.949 44.4517V45.5341H46.305C47.6712 45.5341 48.78 46.6407 48.78 48.0069V58.8639C48.78 60.2301 47.6712 61.3389 46.305 61.3389H29.6994C28.3332 61.3389 27.2244 60.2301 27.2244 58.8639V48.5833C27.2222 48.6295 27.22 48.6779 27.22 48.7263V48.0069C27.22 46.6407 28.3288 45.5341 29.695 45.5341ZM40.871 44.4495C40.871 44.0557 40.552 43.7367 40.1582 43.7367H35.8374C35.4436 43.7367 35.1246 44.0557 35.1246 44.4495V45.5319H40.871V44.4495ZM33.3536 53.7995V53.7973C33.38 54.1361 33.4416 54.4661 33.5362 54.7807C33.5472 54.8137 33.556 54.8467 33.567 54.8819C33.567 54.8841 33.5692 54.8863 33.5692 54.8885C33.5802 54.9193 33.589 54.9501 33.6 54.9809C33.6022 54.9853 33.6044 54.9897 33.6044 54.9963C33.6154 55.0249 33.6242 55.0535 33.6352 55.0821C33.6374 55.0887 33.6396 55.0975 33.644 55.1041C33.655 55.1305 33.6638 55.1569 33.6748 55.1811C33.6792 55.1899 33.6836 55.2009 33.6858 55.2097C33.6946 55.2339 33.7056 55.2559 33.7144 55.2801C33.7188 55.2933 33.7254 55.3065 33.732 55.3175C33.7408 55.3373 33.7496 55.3571 33.7584 55.3769C33.765 55.3923 33.7738 55.4099 33.7804 55.4253C33.787 55.4407 33.7958 55.4561 33.8024 55.4737C33.8134 55.4957 33.8244 55.5177 33.8354 55.5375C33.8398 55.5485 33.8464 55.5595 33.8508 55.5683C33.8662 55.5969 33.8816 55.6277 33.897 55.6563C33.8992 55.6585 33.8992 55.6607 33.9014 55.6629C34.6934 57.1171 36.2356 58.1049 38.0066 58.1049C38.1672 58.1049 38.3256 58.0961 38.4818 58.0807C38.484 58.0807 38.4862 58.0807 38.4884 58.0807C38.5214 58.0763 38.5566 58.0741 38.5896 58.0697C38.6028 58.0675 38.616 58.0653 38.6292 58.0653C38.6512 58.0631 38.6754 58.0587 38.6974 58.0565C38.7194 58.0543 38.7392 58.0499 38.7612 58.0455C38.7744 58.0433 38.7876 58.0411 38.803 58.0389C38.8316 58.0345 38.8602 58.0279 38.8888 58.0235C38.8954 58.0235 38.8998 58.0213 38.9064 58.0213C40.937 57.6231 42.4946 55.9049 42.6552 53.7973C42.6574 53.8149 42.6574 53.8325 42.6596 53.8523C42.6706 53.7159 42.6772 53.5773 42.6772 53.4387C42.6772 50.8603 40.585 48.7681 38.0066 48.7681C35.4282 48.7681 33.336 50.8581 33.336 53.4387C33.3404 53.5597 33.3448 53.6785 33.3536 53.7995ZM35.0696 52.3585H36.9198V50.4973C36.9198 50.3279 37.0584 50.1915 37.2278 50.1915H38.77C38.9394 50.1915 39.078 50.3279 39.078 50.4973V52.3585H40.926C41.0954 52.3585 41.2318 52.4971 41.2318 52.6665V54.2065C41.2318 54.3759 41.0954 54.5145 40.926 54.5145H39.0758V56.3537C39.0758 56.5231 38.9372 56.6595 38.7678 56.6595H37.2256C37.0562 56.6595 36.9176 56.5231 36.9176 56.3537V54.5145H35.0674C34.898 54.5145 34.7616 54.3759 34.7616 54.2065V52.6665C34.7638 52.4971 34.9002 52.3585 35.0696 52.3585Z" fill="#F40101"/>
</svg>
