<svg width="24" height="25" viewBox="0 0 24 25" fill="none" xmlns="http://www.w3.org/2000/svg">
<g id="bloody-sword 1">
<g id="Group">
<path id="Vector" d="M1.64751 2.17796C1.37582 2.17139 1.10924 2.31014 0.964307 2.56289C0.75351 2.93039 0.879931 3.39961 1.24678 3.61079C1.47196 3.74049 1.73521 3.74227 1.95393 3.63961L5.16759 5.48532L3.77085 7.9208L5.10726 8.69377C5.40604 6.37486 6.41718 4.46639 8.32879 3.07641L6.99238 2.30335L5.60348 4.72538L2.39151 2.88075C2.37088 2.6386 2.23635 2.41013 2.01018 2.27991C1.89553 2.21391 1.77098 2.18091 1.64751 2.17796ZM8.82374 5.53571L7.04756 5.5658L18.8359 12.3505L18.3989 13.1098L6.51843 6.27211L7.45078 7.91907C7.63434 8.00686 8.85177 8.59369 10.2527 9.50616C11.6925 10.4439 13.2538 11.6154 13.7401 13.0079C13.9542 13.1143 15.2161 13.7342 17.0016 14.3093C18.781 14.8823 20.9433 15.3243 22.6225 15.0396C22.0135 13.3752 20.5319 11.7513 19.1324 10.5398C17.8346 9.41649 16.6883 8.68097 16.3613 8.47744C14.9124 8.75822 13.118 7.97775 11.5866 7.18697C10.1039 6.42136 8.99465 5.65463 8.82379 5.53566L8.82374 5.53571ZM7.55849 8.9529C7.82207 9.77007 8.04393 10.8079 8.23865 11.9806V15.6034H9.1146V13.629C9.80235 12.2912 11.034 13.482 11.4912 16.1382V23.6852H12.3672V16.2437C12.9587 15.6256 13.6754 16.4172 14.1941 17.755V19.4038H15.0702V18.1988C15.8698 17.2272 17.2474 17.9322 17.8794 20.5005V23.6358H18.7554V20.4919C19.5793 17.7673 21.0595 16.5365 22.2427 15.9779C20.4286 16.1544 18.4118 15.6837 16.7331 15.143C14.7189 14.4944 13.1847 13.7157 13.1847 13.7157L13.0103 13.6272L12.9598 13.4385C12.7038 12.4837 11.2259 11.1855 9.7746 10.2403C8.91792 9.68222 8.09517 9.23199 7.55854 8.95294L7.55849 8.9529ZM8.67665 17.4598C8.13088 17.4598 7.68853 17.9022 7.68853 18.4479C7.68853 18.9937 8.13088 19.436 8.67665 19.436C9.22242 19.436 9.66477 18.9937 9.66477 18.4479C9.66477 17.9022 9.22242 17.4598 8.67665 17.4598ZM21.9776 17.8127C21.9776 17.8127 20.9895 20.2815 20.9895 20.8273C20.9895 21.373 21.4319 21.8154 21.9776 21.8154C22.5234 21.8154 22.9657 21.373 22.9657 20.8273C22.9657 20.2815 21.9776 17.8127 21.9776 17.8127ZM14.6322 20.4737C14.0864 20.4737 13.644 20.916 13.644 21.4619C13.644 22.0076 14.0865 22.45 14.6322 22.45C15.178 22.45 15.6203 22.0076 15.6203 21.4619C15.6203 20.916 15.178 20.4737 14.6322 20.4737Z" fill="white"/>
</g>
</g>
</svg>
