<svg width="172" height="183" viewBox="0 0 172 183" fill="none" xmlns="http://www.w3.org/2000/svg">
<path d="M79.7047 182.082C51.2835 180.453 28.4472 168.141 14.0775 146.698C-1.43232 123.555 -4.36939 94.6491 6.47747 71.9012C10.0503 64.4083 13.8531 58.9908 19.9768 52.6698C23.1854 49.3579 24.8543 48.0168 30.0329 44.5891C33.4478 42.3287 37.088 40.0308 38.1222 39.4827L40.0026 38.486L41.9572 40.0384C44.6236 42.1561 47.1886 43.3018 49.273 43.3062L50.9819 43.3098L49.9168 41.2097C47.3055 36.061 49.3255 35.1338 56.1775 38.3357C60.1736 40.2031 62.4461 40.8898 63.5114 40.5516C64.138 40.3528 64.2314 40.1019 64.0637 39.0683C63.9527 38.3841 63.523 37.3486 63.109 36.7671C62.1439 35.4118 62.1511 34.1115 63.1286 33.2312C63.8246 32.6043 64.4846 32.5388 69.7941 32.5695C89.3206 32.6825 105.695 38.4135 117.79 49.3677C123.892 54.8944 132.099 66.2009 133.759 71.3676C134.685 74.2498 135.739 74.2774 137.245 71.4589L137.942 70.1545L137.677 72.3459C137.531 73.5512 137.413 76.5918 137.415 79.1027C137.418 82.7842 137.546 83.9157 138.078 84.9465C140.012 88.6961 139.665 102.308 137.444 109.786C137.138 110.819 136.146 113.279 135.242 115.253C132.542 121.143 132.623 122.813 135.565 121.842C136.273 121.608 137.225 121.535 137.68 121.68C138.363 121.897 138.119 122.049 136.279 122.553C132.236 123.66 129.022 126.028 125.358 130.601C116.476 141.685 104.266 147.701 87.5076 149.251C83.2959 149.64 82.4657 149.609 78.0115 148.893C75.3269 148.462 71.5746 147.712 69.673 147.226C67.7714 146.74 66.1565 146.401 66.0844 146.473C65.8745 146.683 70.5908 149.229 73.2507 150.342C76.0904 151.53 79.906 152.295 81.5062 151.997C82.5986 151.794 82.6661 151.866 84.2074 154.883C86.7274 159.817 90.2384 163.082 93.0598 163.118C94.6406 163.137 93.0662 163.734 89.7954 164.354C76.6715 166.844 61.1353 161.13 50.4562 149.887C45.0054 144.148 40.1205 134.385 37.5169 124.026C37.0877 122.319 36.6501 120.593 36.5444 120.191C36.4387 119.79 37.2313 120.936 38.3058 122.738C40.8245 126.962 44.6026 130.846 47.7467 132.441C50.9089 134.046 54.8618 134.329 58.1218 133.184C59.3083 132.768 60.7379 132.427 61.2987 132.427C62.9514 132.427 67.8525 130.713 70.1039 129.348C77.746 124.713 85.9505 123.219 91.197 125.506L93.1933 126.376L91.1816 126.779C87.1622 127.584 84.762 129.711 83.8844 133.246C83.636 134.246 83.5166 136.524 83.6016 138.641L83.7487 142.304L75.3351 142.091C66.3679 141.863 65.7756 142.029 70.9452 143.325C75.5032 144.468 78.9621 144.882 83.9049 144.876C95.9404 144.863 105.434 141.054 114.926 132.431C124.131 124.067 129.545 112.998 130.986 99.5935C131.536 94.4866 129.955 90.7038 125.656 86.8362C124.413 85.7181 123.486 84.6563 123.597 84.4768C123.92 83.9551 126.334 84.5513 127.816 85.5188C129.499 86.6166 130.052 86.6533 129.732 85.6462C129.599 85.2275 129.109 83.1984 128.644 81.137C124.298 61.9036 107.636 47.2778 84.2261 42.1467C80.9268 41.4235 79.4167 41.3168 72.5826 41.3238C65.8611 41.3307 64.2139 41.447 61.1458 42.1309C48.9756 44.8439 37.7048 50.839 29.5319 58.9467C20.1288 68.2749 14.7897 77.8075 12.6663 89.0592C11.3218 96.1837 12.0136 97.3797 15.4661 93.8996C16.5895 92.7671 17.5613 91.8931 17.6255 91.9573C17.6897 92.0215 17.2748 93.7388 16.7036 95.7736C14.9765 101.926 14.4044 106.25 14.5952 111.71C14.7461 116.029 14.888 116.867 15.9378 119.644C23.3951 139.365 38.0598 153.984 58.1698 161.742C66.6286 165.006 79.2393 166.599 89.5188 165.703C104.347 164.411 116.604 159.378 127.345 150.17C132.478 145.77 137.382 139.75 141.781 132.449C145.712 125.925 148.012 119.776 149.51 111.791C150.577 106.104 150.481 93.8493 149.328 88.4346C146.991 77.4646 142.123 67.8223 134.199 58.4669C129.07 52.4117 118.52 44.8249 110.163 41.1809L107.428 39.9885L106.303 36.6272C105.684 34.7784 104.59 31.6633 103.871 29.7048C103.152 27.7462 102.615 26.1437 102.679 26.1437C102.742 26.1437 104.065 26.731 105.619 27.4489C107.173 28.1667 108.53 28.6677 108.635 28.5622C109.24 27.9577 103.501 19.3065 99.8545 15.3264L97.725 13.0018L98.9414 13.2308C101.235 13.6624 108.685 15.8843 112.274 17.2069C116.982 18.942 126.699 23.7096 130.837 26.3156C139.229 31.599 148.431 39.7524 153.727 46.5968C163.274 58.9346 168.726 72.2336 171.246 89.3292C174.286 109.952 168.016 132.059 154.569 148.132C150.759 152.685 142.038 160.952 138.142 163.702C126.028 172.254 112.36 177.995 97.4185 180.808C94.3036 181.394 85.5086 182.512 84.8202 182.409C84.6181 182.379 82.3161 182.232 79.7047 182.082V182.082ZM62.0971 60.9316C60.5031 58.573 59.4519 56.1393 59.4422 54.785C59.4364 53.9612 59.1879 53.5279 58.5148 53.1677C58.0092 52.8971 57.2005 52.1579 56.7179 51.5251C55.8724 50.4167 53.5534 46.1469 53.7112 45.9892C53.7535 45.9468 55.0758 46.5593 56.6495 47.3502C59.7505 48.9087 61.6506 49.1686 63.0053 48.2197C63.4517 47.907 63.817 47.3311 63.817 46.9399C63.817 46.4742 64.8367 45.4725 66.7705 44.0387C69.6775 41.8833 69.7619 41.8488 72.1278 41.8488C73.4499 41.8488 75.5662 42.029 76.8308 42.2492C78.6537 42.5667 79.1806 42.8092 79.3745 43.4201C79.5292 43.9076 79.4463 44.2481 79.1486 44.3473C78.8899 44.4336 77.7997 44.9662 76.726 45.531C69.326 49.4236 64.4931 55.1263 63.9244 60.6363C63.8091 61.7533 63.6146 62.6668 63.492 62.6664C63.3694 62.6664 62.7418 61.8854 62.0971 60.9316V60.9316ZM45.8687 41.1137C45.1372 40.7272 43.7402 39.5223 42.7643 38.4363C41.0881 36.5709 40.8776 36.4526 38.9613 36.3005C37.8456 36.2119 36.1537 35.7623 35.2016 35.3014C33.4668 34.4616 29.485 31.4398 29.485 30.963C29.485 30.8234 30.6323 30.7092 32.0346 30.7092C34.4267 30.7092 34.658 30.6355 35.777 29.5164L36.9698 28.3236L36.0011 27.5076C35.4683 27.0588 34.8237 26.2807 34.5688 25.7785C34.082 24.8199 33.4859 22.1262 33.7605 22.1262C33.8484 22.1262 34.6071 22.5251 35.4463 23.0126C37.4085 24.1525 41.1317 24.8184 43.8429 24.5143C45.9029 24.2833 51.3603 23.0172 51.6817 22.6957C51.7693 22.6081 51.2697 22.0348 50.5714 21.4217C49.2889 20.2957 46.651 15.7577 46.651 14.6774C46.651 14.2368 47.0978 14.4132 48.4592 15.3913C50.4878 16.8487 53.7245 18.1086 55.44 18.1086H56.5773L55.6601 17.0186C54.7268 15.9095 53.2252 12.3641 53.2252 11.2697C53.2252 10.7911 53.4317 10.8599 54.2296 11.6046C59.5587 16.578 68.3545 17.667 75.7855 14.2734C80.4079 12.1625 87.4009 6.2372 90.2328 2.03198L91.5166 0.125702L91.9089 1.53855C92.7025 4.39684 92.2772 6.53451 90.5472 8.38197L89.566 9.42974L90.4791 9.16C92.558 8.54585 93.6893 7.9134 94.4825 6.92192L95.3214 5.87327L95.1418 9.17704C95.0237 11.3484 94.7126 13.0449 94.2342 14.1265L93.5062 15.7721L96.012 16.1667C97.3902 16.3837 98.7665 16.7676 99.0704 17.0198C99.5172 17.3906 103.524 22.9811 104.451 24.5264C104.58 24.7417 103.876 24.5173 102.887 24.0276C101.53 23.3562 100.775 23.1962 99.8122 23.3767L98.5363 23.6161L99.7617 25.3365C101.493 27.7667 103.465 31.8336 104.712 35.5455C105.299 37.2929 105.724 38.7788 105.655 38.8475C105.586 38.9163 104.06 38.2341 102.263 37.3317C97.8083 35.0946 92.3323 33.2429 86.8481 32.1195C83.1236 31.3566 81.1284 31.17 76.235 31.1272C69.9231 31.0719 63.7258 31.3877 62.6165 31.821C61.7175 32.1722 61.0362 33.6162 60.5639 36.1708C60.3443 37.3587 60.1647 38.3806 60.1647 38.4416C60.1647 38.5026 59.2196 38.1243 58.0646 37.6008C50.9057 34.3568 48.4153 33.6565 47.4545 34.6172C46.7984 35.2734 46.9258 37.9506 47.7116 40.0187C48.344 41.683 48.3523 41.8474 47.8029 41.8327C47.4707 41.8238 46.6003 41.5003 45.8687 41.1137V41.1137ZM74.5946 25.0974C75.3998 24.7316 76.5752 23.8439 77.2065 23.1248C78.2947 21.8854 78.5096 21.8039 81.3361 21.5573C82.976 21.4143 84.1838 21.1683 84.02 21.0108C83.5594 20.5677 79.6197 19.9348 77.322 19.9348C75.0324 19.9348 70.359 21.0159 68.5056 21.9743L67.3079 22.5937L68.8716 23.9813C70.229 25.1859 70.8761 25.4742 72.7653 25.7158C72.9661 25.7415 73.7893 25.4632 74.5946 25.0974V25.0974Z" fill="#AD4123"/>
<path d="M38.1944 68.7655C37.0077 68.7813 36.1058 68.7813 35.5045 68.7813H34.381C34.0962 68.7813 33.9222 68.813 33.8431 68.8604C33.8431 68.9079 33.8747 68.9712 33.9538 69.0345C34.3336 69.3984 34.5709 69.6991 34.6184 69.9522C34.6817 69.9522 34.7292 73.2909 34.7766 79.9366C34.7608 81.9303 34.745 83.4967 34.7133 84.6676C34.7133 87.3259 34.6026 88.8449 34.3494 89.2405C34.1912 89.5728 33.8905 89.7943 33.4791 89.9525V89.9842C33.6848 90 33.8272 90.0158 33.9222 90.0158H37.7672V89.9684C37.7197 89.9684 37.6089 89.8892 37.4191 89.7468C37.071 89.3513 36.8969 88.3386 36.8969 86.693C36.9127 85.443 36.9127 84.3828 36.9127 83.5126V75.2688H36.9444C39.7767 82.6739 41.5172 87.1993 42.1502 88.8449C42.4191 89.6044 42.5774 89.9842 42.6248 89.9842H45.8844C46.1376 89.3829 48.0205 84.3986 51.5332 75.0156H51.549V75.0314C51.549 77.5156 51.5649 80.5062 51.5807 83.9872C51.5649 85.5063 51.549 86.7563 51.549 87.7215C51.549 88.6867 51.2484 89.4462 50.6629 89.9842V90.0158H50.7737C51.9763 90.0158 52.8465 90.0158 53.3687 90.0316C53.9067 90.0158 54.7769 90.0158 55.9795 90.0158H56.1377V89.9842C55.8529 89.6994 55.7105 89.5411 55.7105 89.5253C55.394 89.2405 55.2358 88.4493 55.2358 87.136C55.2358 84.0347 55.2358 79.9366 55.22 74.8099C55.2358 73.639 55.2358 72.8637 55.2358 72.4997C55.22 72.3415 55.22 71.851 55.22 71.044C55.22 70.0788 55.4731 69.3509 55.9637 68.8288V68.813C55.9637 68.7813 55.9478 68.7655 55.9162 68.7655H51.3592C51.3117 68.7655 51.28 68.8446 51.2642 69.0187C50.6788 70.9491 49.6661 73.813 48.2104 77.5947C46.0426 83.4018 44.9508 86.2974 44.9192 86.2974C44.5394 85.2373 42.2926 79.3827 38.1944 68.7655ZM60.6264 72.7371C60.6264 72.7529 60.6264 72.7529 60.6106 72.7529L60.8954 73.1643C61.1486 73.7023 61.2593 74.082 61.2593 74.2877C61.3701 74.2877 61.4175 77.753 61.4175 84.6835V84.7468C61.4175 86.2658 61.8606 87.5316 62.7309 88.5443C63.6961 89.5095 64.8037 89.9842 66.0537 89.9842H66.4493C67.9841 89.9842 69.4398 89.4145 70.8481 88.2911C71.3544 87.8164 71.7342 87.3892 71.9715 86.9936C71.9715 89.5095 71.9873 91.1551 71.9873 91.9304C71.9873 93.6077 71.924 94.7944 71.7816 95.5064C71.4968 97.0729 71.0696 98.2122 70.4841 98.9242C69.4398 100.522 67.6043 101.313 64.9777 101.313H64.9461V101.361C65.848 101.63 66.6233 101.757 67.2879 101.757H67.7151C68.5221 101.757 69.4398 101.598 70.4841 101.25C72.7627 100.332 74.2975 99.0508 75.0886 97.421C75.5317 96.5982 75.7374 95.3007 75.7374 93.5285V92.4526C75.7057 88.0696 75.6741 81.6771 75.6583 73.2592V73.2276C73.1266 73.6073 71.6709 73.8289 71.2595 73.908C71.2595 73.9238 71.2753 73.9396 71.2911 73.9713C71.6234 74.2877 71.7975 74.5093 71.8449 74.6517C71.924 74.6517 71.9715 75.1738 71.9715 76.2181V84.7151C71.9399 84.9841 71.75 85.3164 71.4019 85.7594C70.3892 86.7405 69.2183 87.2468 67.8892 87.2468C66.5126 87.2468 65.6106 86.6139 65.2151 85.3797C65.1201 85.3797 65.0568 82.8163 64.9935 77.7055C64.9935 77.0568 65.0094 76.4871 65.041 75.9966C65.041 74.4143 65.2309 73.4966 65.5948 73.2592V73.2276C65.31 73.2909 65.041 73.3225 64.7878 73.3225H64.5189C64.2973 73.3225 63.9967 73.3067 63.6486 73.2592C62.3669 73.0061 61.3543 72.832 60.6264 72.7371ZM86.4287 66.0598L83.9761 66.4237C82.7261 66.5977 82.0932 66.7085 82.0932 66.7401V66.756L82.109 66.8034C82.5679 67.1357 82.7894 67.5313 82.7894 68.006V73.1643H82.0774C81.3179 73.1643 80.7166 73.2751 80.2894 73.4649C79.8305 73.7023 79.5299 74.0504 79.3716 74.4776L79.4191 74.4934H82.7894L82.8369 86.0284C82.8843 86.5506 82.9476 86.9462 83.0584 87.1993C83.1533 87.5949 83.3748 88.0221 83.7546 88.4968C84.7198 89.5411 85.9382 90.0475 87.4255 90.0475H87.8211C88.7705 90.0475 89.7515 89.7943 90.7484 89.2721C92.5206 88.2436 93.4066 86.8037 93.4066 84.9208V84.8417H93.3592C93.2801 85.1107 93.0902 85.443 92.7737 85.8227C91.6978 86.8512 90.4952 87.3576 89.1819 87.3576C88.6914 87.3576 88.2167 87.2626 87.7736 87.0886C87.2673 86.8196 86.8876 86.424 86.6502 85.8702C86.4603 85.5221 86.3654 83.8765 86.3654 80.965C86.3654 79.8416 86.3654 77.9745 86.3812 75.3479C86.397 75.0472 86.4129 74.7782 86.4129 74.5409H86.5869C86.7452 74.5409 86.9192 74.5567 87.0774 74.6042C87.8844 74.7941 88.3116 74.8732 88.3907 74.8732H88.5015C88.9287 74.6833 89.4984 74.4301 90.2104 74.1611C90.5901 74.0346 90.7958 73.6706 90.7958 73.0852C90.7958 73.0535 90.78 73.0219 90.7642 72.9902V72.9744C90.5427 73.1168 90.0363 73.1959 89.261 73.1959H87.0141C86.8717 73.1959 86.6819 73.1801 86.4287 73.1643H86.4129C86.4129 71.0915 86.4287 68.7338 86.4603 66.0914C86.4445 66.0914 86.4287 66.0756 86.4287 66.0598ZM100.511 66.1389C100.021 66.2338 98.9289 66.4079 97.2516 66.661C96.5238 66.7401 96.1757 66.8034 96.1757 66.8667C96.6345 67.3098 96.8719 67.6579 96.8719 67.9427C96.8561 69.3668 96.8402 70.4586 96.8402 71.2181V80.5537C96.8402 82.0885 96.8561 84.1297 96.8719 86.6455C96.8561 86.8829 96.8402 87.1519 96.8402 87.4525C96.8402 89.6677 96.5871 91.345 96.0807 92.4684V92.5H96.0966C97.5365 91.4399 98.7865 90.6962 99.8624 90.269C100.305 90.1266 100.527 90.0316 100.527 90.0158V78.5599C100.701 77.9745 101.049 77.484 101.571 77.0884C102.552 76.408 103.549 76.0599 104.562 76.0599C105.226 76.0599 105.844 76.234 106.382 76.5821C106.825 76.9144 107.109 77.3574 107.252 77.927C107.363 77.927 107.442 80.3005 107.473 85.0474V85.617C107.473 86.6613 107.458 87.3734 107.442 87.7531C107.442 88.9715 107.252 89.731 106.888 90.0475V90.0633C107.204 90 107.489 89.9684 107.726 89.9684H107.885C108.059 89.9684 108.328 89.9842 108.692 90.0158C110.306 90.3323 111.35 90.5063 111.84 90.5538H111.856C111.856 90.5222 111.793 90.4114 111.666 90.269C111.366 89.6835 111.208 89.2247 111.208 88.924C111.128 88.924 111.081 86.3132 111.081 81.0916V78.8448C111.081 77.2466 110.717 75.9808 110.005 75.0472C109.04 73.8922 107.806 73.3225 106.287 73.3225H106.065C104.989 73.3225 103.85 73.6232 102.663 74.2561C101.666 74.889 100.954 75.5694 100.559 76.2973H100.527V66.1863L100.511 66.1389ZM36.7754 94.7655C36.6488 94.7655 35.3038 94.9395 32.7563 95.2877C31.981 95.3509 31.5854 95.3984 31.5854 95.4617V95.4775C32.2184 95.8731 32.5348 96.2845 32.5348 96.7117V96.8383C32.5348 97.044 32.5032 97.2181 32.4715 97.3446C32.4715 97.5662 31.1424 101.221 28.5158 108.326C27.5506 111.095 26.8702 112.946 26.4904 113.896C26.1265 114.908 25.6834 115.604 25.1296 115.984V116.016H28.9746V115.984C28.7531 115.731 28.6423 115.478 28.6423 115.225V115.035C28.6423 114.703 29.1012 113.278 30.0348 110.747H37.7881C38.421 112.725 38.7374 114.101 38.7374 114.861C38.7374 115.288 38.595 115.652 38.3102 115.984V116.016H43.8641V115.968C43.785 115.968 43.6109 115.842 43.3419 115.589C42.9622 115.304 42.4717 114.165 41.8388 112.171C40.8419 108.547 39.3229 103.262 37.2975 96.3161C37.0444 95.2877 36.8703 94.7655 36.807 94.7655H36.7754ZM34.4178 99.0377H34.4494C34.6867 99.908 35.6678 103.373 37.4083 109.418H30.5253L34.4178 99.0377ZM53.4478 99.2434L51.3592 99.5757C49.856 99.7656 49.1123 99.8922 49.1123 99.9396V99.9554C49.5553 100.367 49.7769 100.731 49.7769 101.031V101.664V110.193V113.579C49.7769 115.573 49.5237 117.171 49.0173 118.421H49.0332C50.4731 117.361 51.7073 116.633 52.7516 116.206C53.2263 116.047 53.4636 115.968 53.4636 115.937V104.433C53.5111 104.196 53.701 103.864 54.0332 103.437C55.0617 102.487 56.1852 101.997 57.4036 101.997H57.6093C58.6061 101.997 59.3814 102.392 59.9036 103.152C59.9511 103.152 60.9004 102.376 62.7834 100.81V100.794C61.8498 99.7497 60.6315 99.2434 59.1283 99.2434C57.9099 99.2434 56.7232 99.5599 55.5364 100.224C54.5712 100.857 53.8908 101.522 53.4953 102.234H53.4636V99.2751L53.4478 99.2434ZM73.981 99.1485C72.3829 99.1485 70.8481 99.5599 69.3923 100.367C68.9335 100.557 68.3006 101.063 67.4619 101.87C65.8955 103.674 65.1201 105.762 65.1201 108.12C65.1201 110.747 66.0379 112.835 67.8575 114.418C69.2499 115.399 70.5949 115.905 71.8924 115.905H72.3196C73.2532 115.905 74.2817 115.684 75.4209 115.24C77.3197 114.386 78.5697 113.231 79.1868 111.807H79.171C77.6045 112.962 75.8956 113.547 74.0918 113.547C72.3829 113.547 71.0063 112.978 69.9303 111.839C70.8955 110.858 74.2026 107.551 79.8988 101.918C79.4716 101.474 79.0919 101.111 78.7596 100.857C77.4463 99.7181 75.8481 99.1485 73.981 99.1485ZM67.905 106.506C67.905 105.193 68.2214 104.101 68.8227 103.262C69.867 102.06 71.1645 101.459 72.7152 101.459H72.8576C73.3165 101.459 73.7753 101.522 74.25 101.649C75.4367 102.028 76.2437 102.582 76.6551 103.31C72.8418 107.092 70.3259 109.576 69.1234 110.747H69.0917C68.3006 109.386 67.905 107.962 67.905 106.506ZM88.8971 99.2434L86.8084 99.5757C85.3053 99.7814 84.5616 99.8922 84.5616 99.9396V99.9713C85.0046 100.398 85.2261 100.747 85.2261 101C85.2261 102.55 85.2261 103.943 85.2103 105.177C85.2261 107.804 85.2261 110.446 85.2261 113.089V113.342C85.2261 115.525 84.973 117.218 84.4666 118.421H84.4825C85.9224 117.377 87.1565 116.633 88.2009 116.222C88.6756 116.063 88.9129 115.968 88.9129 115.953V115.794C88.9129 112.93 88.9129 109.782 88.8971 106.38C88.9129 105.668 88.9129 105.003 88.9129 104.402C89.0078 104.069 89.2452 103.706 89.6408 103.294C90.6534 102.44 91.7294 102.012 92.8528 102.012H93.0269C94.3718 102.012 95.2421 102.63 95.6377 103.848C95.7485 103.848 95.8117 106.348 95.8592 111.316C95.8592 112.677 95.8434 113.358 95.8276 113.358C95.8276 114.829 95.6377 115.699 95.2738 115.968V116C95.6377 115.937 95.9383 115.905 96.1599 115.905H96.2548C96.413 115.905 96.7295 115.921 97.22 115.968C98.4225 116.237 99.4352 116.411 100.242 116.491V116.475C100.242 116.443 100.242 116.427 100.211 116.427C99.9257 116.095 99.72 115.589 99.5935 114.892C99.4985 114.892 99.4352 111.807 99.4352 105.636C99.451 105.161 99.4669 104.845 99.4669 104.671C99.4669 103.579 99.2453 102.566 98.8181 101.649C97.8846 100.05 96.4763 99.2434 94.5775 99.2434C93.9605 99.2434 93.3275 99.3383 92.6788 99.5124C90.9066 100.098 89.6566 101 88.8971 102.266L88.9129 102.028V99.2909L88.8971 99.2434ZM113.006 99.1801C110.933 99.1801 109.256 99.7023 107.975 100.731V100.762C108.702 100.604 109.43 100.525 110.158 100.525H110.696C111.709 100.525 112.642 100.667 113.528 100.936C115.601 101.633 116.63 103.073 116.63 105.256C116.614 105.351 116.598 105.462 116.598 105.588V105.62C112.516 105.62 109.652 106.364 108.022 107.867C106.82 109.054 106.218 110.367 106.218 111.791V112.044C106.218 112.456 106.297 112.915 106.471 113.437C107.199 115.13 108.544 115.984 110.506 115.984C112.484 115.984 114.509 115.367 116.598 114.133C116.614 114.133 116.646 114.259 116.693 114.497C116.883 115.035 117.073 115.351 117.263 115.43C117.516 115.81 118.402 116 119.905 116C120.506 115.984 120.855 115.984 120.949 115.984V115.953L120.586 115.715C120.253 115.383 120.095 115.098 120.095 114.861C120.111 113.437 120.111 112.361 120.111 111.617V108.088C120.111 107.218 120.111 106 120.095 104.402L120 103.927C119.715 102.74 119.177 101.791 118.434 101.095C116.962 99.813 115.158 99.1801 113.006 99.1801ZM109.304 110.589C109.304 109.544 109.763 108.69 110.665 108.025C111.915 107.266 113.56 106.902 115.617 106.902C115.934 106.902 116.266 106.918 116.598 106.933V111.142C116.598 111.301 116.614 111.49 116.63 111.712C116.614 111.744 116.598 111.87 116.598 112.108V112.835C115.253 113.642 113.94 114.038 112.674 114.038H112.642C111.867 114.038 111.171 113.816 110.554 113.342C109.715 112.598 109.304 111.728 109.304 110.715V110.589Z" fill="#AD4123"/>
<g filter="url(#filter0_bii_142_877)">
<path d="M38.1944 68.7655C37.0077 68.7813 36.1058 68.7813 35.5045 68.7813H34.381C34.0962 68.7813 33.9222 68.813 33.8431 68.8604C33.8431 68.9079 33.8747 68.9712 33.9538 69.0345C34.3336 69.3984 34.5709 69.6991 34.6184 69.9522C34.6817 69.9522 34.7292 73.2909 34.7766 79.9366C34.7608 81.9303 34.745 83.4967 34.7133 84.6676C34.7133 87.3259 34.6026 88.8449 34.3494 89.2405C34.1912 89.5728 33.8905 89.7943 33.4791 89.9525V89.9842C33.6848 90 33.8272 90.0158 33.9222 90.0158H37.7672V89.9684C37.7197 89.9684 37.6089 89.8892 37.4191 89.7468C37.071 89.3513 36.8969 88.3386 36.8969 86.693C36.9127 85.443 36.9127 84.3828 36.9127 83.5126V75.2688H36.9444C39.7767 82.6739 41.5172 87.1993 42.1502 88.8449C42.4191 89.6044 42.5774 89.9842 42.6248 89.9842H45.8844C46.1376 89.3829 48.0205 84.3986 51.5332 75.0156H51.549V75.0314C51.549 77.5156 51.5649 80.5062 51.5807 83.9872C51.5649 85.5063 51.549 86.7563 51.549 87.7215C51.549 88.6867 51.2484 89.4462 50.6629 89.9842V90.0158H50.7737C51.9763 90.0158 52.8465 90.0158 53.3687 90.0316C53.9067 90.0158 54.7769 90.0158 55.9795 90.0158H56.1377V89.9842C55.8529 89.6994 55.7105 89.5411 55.7105 89.5253C55.394 89.2405 55.2358 88.4493 55.2358 87.136C55.2358 84.0347 55.2358 79.9366 55.22 74.8099C55.2358 73.639 55.2358 72.8637 55.2358 72.4997C55.22 72.3415 55.22 71.851 55.22 71.044C55.22 70.0788 55.4731 69.3509 55.9637 68.8288V68.813C55.9637 68.7813 55.9478 68.7655 55.9162 68.7655H51.3592C51.3117 68.7655 51.28 68.8446 51.2642 69.0187C50.6788 70.9491 49.6661 73.813 48.2104 77.5947C46.0426 83.4018 44.9508 86.2974 44.9192 86.2974C44.5394 85.2373 42.2926 79.3827 38.1944 68.7655ZM60.6264 72.7371C60.6264 72.7529 60.6264 72.7529 60.6106 72.7529L60.8954 73.1643C61.1486 73.7023 61.2593 74.082 61.2593 74.2877C61.3701 74.2877 61.4175 77.753 61.4175 84.6835V84.7468C61.4175 86.2658 61.8606 87.5316 62.7309 88.5443C63.6961 89.5095 64.8037 89.9842 66.0537 89.9842H66.4493C67.9841 89.9842 69.4398 89.4145 70.8481 88.2911C71.3544 87.8164 71.7342 87.3892 71.9715 86.9936C71.9715 89.5095 71.9873 91.1551 71.9873 91.9304C71.9873 93.6077 71.924 94.7944 71.7816 95.5064C71.4968 97.0729 71.0696 98.2122 70.4841 98.9242C69.4398 100.522 67.6043 101.313 64.9777 101.313H64.9461V101.361C65.848 101.63 66.6233 101.757 67.2879 101.757H67.7151C68.5221 101.757 69.4398 101.598 70.4841 101.25C72.7627 100.332 74.2975 99.0508 75.0886 97.421C75.5317 96.5982 75.7374 95.3007 75.7374 93.5285V92.4526C75.7057 88.0696 75.6741 81.6771 75.6583 73.2592V73.2276C73.1266 73.6073 71.6709 73.8289 71.2595 73.908C71.2595 73.9238 71.2753 73.9396 71.2911 73.9713C71.6234 74.2877 71.7975 74.5093 71.8449 74.6517C71.924 74.6517 71.9715 75.1738 71.9715 76.2181V84.7151C71.9399 84.9841 71.75 85.3164 71.4019 85.7594C70.3892 86.7405 69.2183 87.2468 67.8892 87.2468C66.5126 87.2468 65.6106 86.6139 65.2151 85.3797C65.1201 85.3797 65.0568 82.8163 64.9935 77.7055C64.9935 77.0568 65.0094 76.4871 65.041 75.9966C65.041 74.4143 65.2309 73.4966 65.5948 73.2592V73.2276C65.31 73.2909 65.041 73.3225 64.7878 73.3225H64.5189C64.2973 73.3225 63.9967 73.3067 63.6486 73.2592C62.3669 73.0061 61.3543 72.832 60.6264 72.7371ZM86.4287 66.0598L83.9761 66.4237C82.7261 66.5977 82.0932 66.7085 82.0932 66.7401V66.756L82.109 66.8034C82.5679 67.1357 82.7894 67.5313 82.7894 68.006V73.1643H82.0774C81.3179 73.1643 80.7166 73.2751 80.2894 73.4649C79.8305 73.7023 79.5299 74.0504 79.3716 74.4776L79.4191 74.4934H82.7894L82.8369 86.0284C82.8843 86.5506 82.9476 86.9462 83.0584 87.1993C83.1533 87.5949 83.3748 88.0221 83.7546 88.4968C84.7198 89.5411 85.9382 90.0475 87.4255 90.0475H87.8211C88.7705 90.0475 89.7515 89.7943 90.7484 89.2721C92.5206 88.2436 93.4066 86.8037 93.4066 84.9208V84.8417H93.3592C93.2801 85.1107 93.0902 85.443 92.7737 85.8227C91.6978 86.8512 90.4952 87.3576 89.1819 87.3576C88.6914 87.3576 88.2167 87.2626 87.7736 87.0886C87.2673 86.8196 86.8876 86.424 86.6502 85.8702C86.4603 85.5221 86.3654 83.8765 86.3654 80.965C86.3654 79.8416 86.3654 77.9745 86.3812 75.3479C86.397 75.0472 86.4129 74.7782 86.4129 74.5409H86.5869C86.7452 74.5409 86.9192 74.5567 87.0774 74.6042C87.8844 74.7941 88.3116 74.8732 88.3907 74.8732H88.5015C88.9287 74.6833 89.4984 74.4301 90.2104 74.1611C90.5901 74.0346 90.7958 73.6706 90.7958 73.0852C90.7958 73.0535 90.78 73.0219 90.7642 72.9902V72.9744C90.5427 73.1168 90.0363 73.1959 89.261 73.1959H87.0141C86.8717 73.1959 86.6819 73.1801 86.4287 73.1643H86.4129C86.4129 71.0915 86.4287 68.7338 86.4603 66.0914C86.4445 66.0914 86.4287 66.0756 86.4287 66.0598ZM100.511 66.1389C100.021 66.2338 98.9289 66.4079 97.2516 66.661C96.5238 66.7401 96.1757 66.8034 96.1757 66.8667C96.6345 67.3098 96.8719 67.6579 96.8719 67.9427C96.8561 69.3668 96.8402 70.4586 96.8402 71.2181V80.5537C96.8402 82.0885 96.8561 84.1297 96.8719 86.6455C96.8561 86.8829 96.8402 87.1519 96.8402 87.4525C96.8402 89.6677 96.5871 91.345 96.0807 92.4684V92.5H96.0966C97.5365 91.4399 98.7865 90.6962 99.8624 90.269C100.305 90.1266 100.527 90.0316 100.527 90.0158V78.5599C100.701 77.9745 101.049 77.484 101.571 77.0884C102.552 76.408 103.549 76.0599 104.562 76.0599C105.226 76.0599 105.844 76.234 106.382 76.5821C106.825 76.9144 107.109 77.3574 107.252 77.927C107.363 77.927 107.442 80.3005 107.473 85.0474V85.617C107.473 86.6613 107.458 87.3734 107.442 87.7531C107.442 88.9715 107.252 89.731 106.888 90.0475V90.0633C107.204 90 107.489 89.9684 107.726 89.9684H107.885C108.059 89.9684 108.328 89.9842 108.692 90.0158C110.306 90.3323 111.35 90.5063 111.84 90.5538H111.856C111.856 90.5222 111.793 90.4114 111.666 90.269C111.366 89.6835 111.208 89.2247 111.208 88.924C111.128 88.924 111.081 86.3132 111.081 81.0916V78.8448C111.081 77.2466 110.717 75.9808 110.005 75.0472C109.04 73.8922 107.806 73.3225 106.287 73.3225H106.065C104.989 73.3225 103.85 73.6232 102.663 74.2561C101.666 74.889 100.954 75.5694 100.559 76.2973H100.527V66.1863L100.511 66.1389ZM36.7754 94.7655C36.6488 94.7655 35.3038 94.9395 32.7563 95.2877C31.981 95.3509 31.5854 95.3984 31.5854 95.4617V95.4775C32.2184 95.8731 32.5348 96.2845 32.5348 96.7117V96.8383C32.5348 97.044 32.5032 97.2181 32.4715 97.3446C32.4715 97.5662 31.1424 101.221 28.5158 108.326C27.5506 111.095 26.8702 112.946 26.4904 113.896C26.1265 114.908 25.6834 115.604 25.1296 115.984V116.016H28.9746V115.984C28.7531 115.731 28.6423 115.478 28.6423 115.225V115.035C28.6423 114.703 29.1012 113.278 30.0348 110.747H37.7881C38.421 112.725 38.7374 114.101 38.7374 114.861C38.7374 115.288 38.595 115.652 38.3102 115.984V116.016H43.8641V115.968C43.785 115.968 43.6109 115.842 43.3419 115.589C42.9622 115.304 42.4717 114.165 41.8388 112.171C40.8419 108.547 39.3229 103.262 37.2975 96.3161C37.0444 95.2877 36.8703 94.7655 36.807 94.7655H36.7754ZM34.4178 99.0377H34.4494C34.6867 99.908 35.6678 103.373 37.4083 109.418H30.5253L34.4178 99.0377ZM53.4478 99.2434L51.3592 99.5757C49.856 99.7656 49.1123 99.8922 49.1123 99.9396V99.9554C49.5553 100.367 49.7769 100.731 49.7769 101.031V101.664V110.193V113.579C49.7769 115.573 49.5237 117.171 49.0173 118.421H49.0332C50.4731 117.361 51.7073 116.633 52.7516 116.206C53.2263 116.047 53.4636 115.968 53.4636 115.937V104.433C53.5111 104.196 53.701 103.864 54.0332 103.437C55.0617 102.487 56.1852 101.997 57.4036 101.997H57.6093C58.6061 101.997 59.3814 102.392 59.9036 103.152C59.9511 103.152 60.9004 102.376 62.7834 100.81V100.794C61.8498 99.7497 60.6315 99.2434 59.1283 99.2434C57.9099 99.2434 56.7232 99.5599 55.5364 100.224C54.5712 100.857 53.8908 101.522 53.4953 102.234H53.4636V99.2751L53.4478 99.2434ZM73.981 99.1485C72.3829 99.1485 70.8481 99.5599 69.3923 100.367C68.9335 100.557 68.3006 101.063 67.4619 101.87C65.8955 103.674 65.1201 105.762 65.1201 108.12C65.1201 110.747 66.0379 112.835 67.8575 114.418C69.2499 115.399 70.5949 115.905 71.8924 115.905H72.3196C73.2532 115.905 74.2817 115.684 75.4209 115.24C77.3197 114.386 78.5697 113.231 79.1868 111.807H79.171C77.6045 112.962 75.8956 113.547 74.0918 113.547C72.3829 113.547 71.0063 112.978 69.9303 111.839C70.8955 110.858 74.2026 107.551 79.8988 101.918C79.4716 101.474 79.0919 101.111 78.7596 100.857C77.4463 99.7181 75.8481 99.1485 73.981 99.1485ZM67.905 106.506C67.905 105.193 68.2214 104.101 68.8227 103.262C69.867 102.06 71.1645 101.459 72.7152 101.459H72.8576C73.3165 101.459 73.7753 101.522 74.25 101.649C75.4367 102.028 76.2437 102.582 76.6551 103.31C72.8418 107.092 70.3259 109.576 69.1234 110.747H69.0917C68.3006 109.386 67.905 107.962 67.905 106.506ZM88.8971 99.2434L86.8084 99.5757C85.3053 99.7814 84.5616 99.8922 84.5616 99.9396V99.9713C85.0046 100.398 85.2261 100.747 85.2261 101C85.2261 102.55 85.2261 103.943 85.2103 105.177C85.2261 107.804 85.2261 110.446 85.2261 113.089V113.342C85.2261 115.525 84.973 117.218 84.4666 118.421H84.4825C85.9224 117.377 87.1565 116.633 88.2009 116.222C88.6756 116.063 88.9129 115.968 88.9129 115.953V115.794C88.9129 112.93 88.9129 109.782 88.8971 106.38C88.9129 105.668 88.9129 105.003 88.9129 104.402C89.0078 104.069 89.2452 103.706 89.6408 103.294C90.6534 102.44 91.7294 102.012 92.8528 102.012H93.0269C94.3718 102.012 95.2421 102.63 95.6377 103.848C95.7485 103.848 95.8117 106.348 95.8592 111.316C95.8592 112.677 95.8434 113.358 95.8276 113.358C95.8276 114.829 95.6377 115.699 95.2738 115.968V116C95.6377 115.937 95.9383 115.905 96.1599 115.905H96.2548C96.413 115.905 96.7295 115.921 97.22 115.968C98.4225 116.237 99.4352 116.411 100.242 116.491V116.475C100.242 116.443 100.242 116.427 100.211 116.427C99.9257 116.095 99.72 115.589 99.5935 114.892C99.4985 114.892 99.4352 111.807 99.4352 105.636C99.451 105.161 99.4669 104.845 99.4669 104.671C99.4669 103.579 99.2453 102.566 98.8181 101.649C97.8846 100.05 96.4763 99.2434 94.5775 99.2434C93.9605 99.2434 93.3275 99.3383 92.6788 99.5124C90.9066 100.098 89.6566 101 88.8971 102.266L88.9129 102.028V99.2909L88.8971 99.2434ZM113.006 99.1801C110.933 99.1801 109.256 99.7023 107.975 100.731V100.762C108.702 100.604 109.43 100.525 110.158 100.525H110.696C111.709 100.525 112.642 100.667 113.528 100.936C115.601 101.633 116.63 103.073 116.63 105.256C116.614 105.351 116.598 105.462 116.598 105.588V105.62C112.516 105.62 109.652 106.364 108.022 107.867C106.82 109.054 106.218 110.367 106.218 111.791V112.044C106.218 112.456 106.297 112.915 106.471 113.437C107.199 115.13 108.544 115.984 110.506 115.984C112.484 115.984 114.509 115.367 116.598 114.133C116.614 114.133 116.646 114.259 116.693 114.497C116.883 115.035 117.073 115.351 117.263 115.43C117.516 115.81 118.402 116 119.905 116C120.506 115.984 120.855 115.984 120.949 115.984V115.953L120.586 115.715C120.253 115.383 120.095 115.098 120.095 114.861C120.111 113.437 120.111 112.361 120.111 111.617V108.088C120.111 107.218 120.111 106 120.095 104.402L120 103.927C119.715 102.74 119.177 101.791 118.434 101.095C116.962 99.813 115.158 99.1801 113.006 99.1801ZM109.304 110.589C109.304 109.544 109.763 108.69 110.665 108.025C111.915 107.266 113.56 106.902 115.617 106.902C115.934 106.902 116.266 106.918 116.598 106.933V111.142C116.598 111.301 116.614 111.49 116.63 111.712C116.614 111.744 116.598 111.87 116.598 112.108V112.835C115.253 113.642 113.94 114.038 112.674 114.038H112.642C111.867 114.038 111.171 113.816 110.554 113.342C109.715 112.598 109.304 111.728 109.304 110.715V110.589Z" fill="#AD4123" fill-opacity="0.2"/>
</g>
<g filter="url(#filter1_bii_142_877)">
<path d="M79.7047 182.082C51.2835 180.453 28.4472 168.141 14.0775 146.698C-1.43232 123.555 -4.36939 94.6491 6.47747 71.9012C10.0503 64.4083 13.8531 58.9908 19.9768 52.6698C23.1854 49.3579 24.8543 48.0168 30.0329 44.5891C33.4478 42.3287 37.088 40.0308 38.1222 39.4827L40.0026 38.486L41.9572 40.0384C44.6236 42.1561 47.1886 43.3018 49.273 43.3062L50.9819 43.3098L49.9168 41.2097C47.3055 36.061 49.3255 35.1338 56.1775 38.3357C60.1736 40.2031 62.4461 40.8898 63.5114 40.5516C64.138 40.3528 64.2314 40.1019 64.0637 39.0683C63.9527 38.3841 63.523 37.3486 63.109 36.7671C62.1439 35.4118 62.1511 34.1115 63.1286 33.2312C63.8246 32.6043 64.4846 32.5388 69.7941 32.5695C89.3206 32.6825 105.695 38.4135 117.79 49.3677C123.892 54.8944 132.099 66.2009 133.759 71.3676C134.685 74.2498 135.739 74.2774 137.245 71.4589L137.942 70.1545L137.677 72.3459C137.531 73.5512 137.413 76.5918 137.415 79.1027C137.418 82.7842 137.546 83.9157 138.078 84.9465C140.012 88.6961 139.665 102.308 137.444 109.786C137.138 110.819 136.146 113.279 135.242 115.253C132.542 121.143 132.623 122.813 135.565 121.842C136.273 121.608 137.225 121.535 137.68 121.68C138.363 121.897 138.119 122.049 136.279 122.553C132.236 123.66 129.022 126.028 125.358 130.601C116.476 141.685 104.266 147.701 87.5076 149.251C83.2959 149.64 82.4657 149.609 78.0115 148.893C75.3269 148.462 71.5746 147.712 69.673 147.226C67.7714 146.74 66.1565 146.401 66.0844 146.473C65.8745 146.683 70.5908 149.229 73.2507 150.342C76.0904 151.53 79.906 152.295 81.5062 151.997C82.5986 151.794 82.6661 151.866 84.2074 154.883C86.7274 159.817 90.2384 163.082 93.0598 163.118C94.6406 163.137 93.0662 163.734 89.7954 164.354C76.6715 166.844 61.1353 161.13 50.4562 149.887C45.0054 144.148 40.1205 134.385 37.5169 124.026C37.0877 122.319 36.6501 120.593 36.5444 120.191C36.4387 119.79 37.2313 120.936 38.3058 122.738C40.8245 126.962 44.6026 130.846 47.7467 132.441C50.9089 134.046 54.8618 134.329 58.1218 133.184C59.3083 132.768 60.7379 132.427 61.2987 132.427C62.9514 132.427 67.8525 130.713 70.1039 129.348C77.746 124.713 85.9505 123.219 91.197 125.506L93.1933 126.376L91.1816 126.779C87.1622 127.584 84.762 129.711 83.8844 133.246C83.636 134.246 83.5166 136.524 83.6016 138.641L83.7487 142.304L75.3351 142.091C66.3679 141.863 65.7756 142.029 70.9452 143.325C75.5032 144.468 78.9621 144.882 83.9049 144.876C95.9404 144.863 105.434 141.054 114.926 132.431C124.131 124.067 129.545 112.998 130.986 99.5935C131.536 94.4866 129.955 90.7038 125.656 86.8362C124.413 85.7181 123.486 84.6563 123.597 84.4768C123.92 83.9551 126.334 84.5513 127.816 85.5188C129.499 86.6166 130.052 86.6533 129.732 85.6462C129.599 85.2275 129.109 83.1984 128.644 81.137C124.298 61.9036 107.636 47.2778 84.2261 42.1467C80.9268 41.4235 79.4167 41.3168 72.5826 41.3238C65.8611 41.3307 64.2139 41.447 61.1458 42.1309C48.9756 44.8439 37.7048 50.839 29.5319 58.9467C20.1288 68.2749 14.7897 77.8075 12.6663 89.0592C11.3218 96.1837 12.0136 97.3797 15.4661 93.8996C16.5895 92.7671 17.5613 91.8931 17.6255 91.9573C17.6897 92.0215 17.2748 93.7388 16.7036 95.7736C14.9765 101.926 14.4044 106.25 14.5952 111.71C14.7461 116.029 14.888 116.867 15.9378 119.644C23.3951 139.365 38.0598 153.984 58.1698 161.742C66.6286 165.006 79.2393 166.599 89.5188 165.703C104.347 164.411 116.604 159.378 127.345 150.17C132.478 145.77 137.382 139.75 141.781 132.449C145.712 125.925 148.012 119.776 149.51 111.791C150.577 106.104 150.481 93.8493 149.328 88.4346C146.991 77.4646 142.123 67.8223 134.199 58.4669C129.07 52.4117 118.52 44.8249 110.163 41.1809L107.428 39.9885L106.303 36.6272C105.684 34.7784 104.59 31.6633 103.871 29.7048C103.152 27.7462 102.615 26.1437 102.679 26.1437C102.742 26.1437 104.065 26.731 105.619 27.4489C107.173 28.1667 108.53 28.6677 108.635 28.5622C109.24 27.9577 103.501 19.3065 99.8545 15.3264L97.725 13.0018L98.9414 13.2308C101.235 13.6624 108.685 15.8843 112.274 17.2069C116.982 18.942 126.699 23.7096 130.837 26.3156C139.229 31.599 148.431 39.7524 153.727 46.5968C163.274 58.9346 168.726 72.2336 171.246 89.3292C174.286 109.952 168.016 132.059 154.569 148.132C150.759 152.685 142.038 160.952 138.142 163.702C126.028 172.254 112.36 177.995 97.4185 180.808C94.3036 181.394 85.5086 182.512 84.8202 182.409C84.6181 182.379 82.3161 182.232 79.7047 182.082V182.082ZM62.0971 60.9316C60.5031 58.573 59.4519 56.1393 59.4422 54.785C59.4364 53.9612 59.1879 53.5279 58.5148 53.1677C58.0092 52.8971 57.2005 52.1579 56.7179 51.5251C55.8724 50.4167 53.5534 46.1469 53.7112 45.9892C53.7535 45.9468 55.0758 46.5593 56.6495 47.3502C59.7505 48.9087 61.6506 49.1686 63.0053 48.2197C63.4517 47.907 63.817 47.3311 63.817 46.9399C63.817 46.4742 64.8367 45.4725 66.7705 44.0387C69.6775 41.8833 69.7619 41.8488 72.1278 41.8488C73.4499 41.8488 75.5662 42.029 76.8308 42.2492C78.6537 42.5667 79.1806 42.8092 79.3745 43.4201C79.5292 43.9076 79.4463 44.2481 79.1486 44.3473C78.8899 44.4336 77.7997 44.9662 76.726 45.531C69.326 49.4236 64.4931 55.1263 63.9244 60.6363C63.8091 61.7533 63.6146 62.6668 63.492 62.6664C63.3694 62.6664 62.7418 61.8854 62.0971 60.9316V60.9316ZM45.8687 41.1137C45.1372 40.7272 43.7402 39.5223 42.7643 38.4363C41.0881 36.5709 40.8776 36.4526 38.9613 36.3005C37.8456 36.2119 36.1537 35.7623 35.2016 35.3014C33.4668 34.4616 29.485 31.4398 29.485 30.963C29.485 30.8234 30.6323 30.7092 32.0346 30.7092C34.4267 30.7092 34.658 30.6355 35.777 29.5164L36.9698 28.3236L36.0011 27.5076C35.4683 27.0588 34.8237 26.2807 34.5688 25.7785C34.082 24.8199 33.4859 22.1262 33.7605 22.1262C33.8484 22.1262 34.6071 22.5251 35.4463 23.0126C37.4085 24.1525 41.1317 24.8184 43.8429 24.5143C45.9029 24.2833 51.3603 23.0172 51.6817 22.6957C51.7693 22.6081 51.2697 22.0348 50.5714 21.4217C49.2889 20.2957 46.651 15.7577 46.651 14.6774C46.651 14.2368 47.0978 14.4132 48.4592 15.3913C50.4878 16.8487 53.7245 18.1086 55.44 18.1086H56.5773L55.6601 17.0186C54.7268 15.9095 53.2252 12.3641 53.2252 11.2697C53.2252 10.7911 53.4317 10.8599 54.2296 11.6046C59.5587 16.578 68.3545 17.667 75.7855 14.2734C80.4079 12.1625 87.4009 6.2372 90.2328 2.03198L91.5166 0.125702L91.9089 1.53855C92.7025 4.39684 92.2772 6.53451 90.5472 8.38197L89.566 9.42974L90.4791 9.16C92.558 8.54585 93.6893 7.9134 94.4825 6.92192L95.3214 5.87327L95.1418 9.17704C95.0237 11.3484 94.7126 13.0449 94.2342 14.1265L93.5062 15.7721L96.012 16.1667C97.3902 16.3837 98.7665 16.7676 99.0704 17.0198C99.5172 17.3906 103.524 22.9811 104.451 24.5264C104.58 24.7417 103.876 24.5173 102.887 24.0276C101.53 23.3562 100.775 23.1962 99.8122 23.3767L98.5363 23.6161L99.7617 25.3365C101.493 27.7667 103.465 31.8336 104.712 35.5455C105.299 37.2929 105.724 38.7788 105.655 38.8475C105.586 38.9163 104.06 38.2341 102.263 37.3317C97.8083 35.0946 92.3323 33.2429 86.8481 32.1195C83.1236 31.3566 81.1284 31.17 76.235 31.1272C69.9231 31.0719 63.7258 31.3877 62.6165 31.821C61.7175 32.1722 61.0362 33.6162 60.5639 36.1708C60.3443 37.3587 60.1647 38.3806 60.1647 38.4416C60.1647 38.5026 59.2196 38.1243 58.0646 37.6008C50.9057 34.3568 48.4153 33.6565 47.4545 34.6172C46.7984 35.2734 46.9258 37.9506 47.7116 40.0187C48.344 41.683 48.3523 41.8474 47.8029 41.8327C47.4707 41.8238 46.6003 41.5003 45.8687 41.1137V41.1137ZM74.5946 25.0974C75.3998 24.7316 76.5752 23.8439 77.2065 23.1248C78.2947 21.8854 78.5096 21.8039 81.3361 21.5573C82.976 21.4143 84.1838 21.1683 84.02 21.0108C83.5594 20.5677 79.6197 19.9348 77.322 19.9348C75.0324 19.9348 70.359 21.0159 68.5056 21.9743L67.3079 22.5937L68.8716 23.9813C70.229 25.1859 70.8761 25.4742 72.7653 25.7158C72.9661 25.7415 73.7893 25.4632 74.5946 25.0974V25.0974Z" fill="#AD4123" fill-opacity="0.2"/>
</g>
<defs>
<filter id="filter0_bii_142_877" x="22.5643" y="63.4944" width="100.95" height="57.4918" filterUnits="userSpaceOnUse" color-interpolation-filters="sRGB">
<feFlood flood-opacity="0" result="BackgroundImageFix"/>
<feGaussianBlur in="BackgroundImage" stdDeviation="1.28267"/>
<feComposite in2="SourceAlpha" operator="in" result="effect1_backgroundBlur_142_877"/>
<feBlend mode="normal" in="SourceGraphic" in2="effect1_backgroundBlur_142_877" result="shape"/>
<feColorMatrix in="SourceAlpha" type="matrix" values="0 0 0 0 0 0 0 0 0 0 0 0 0 0 0 0 0 0 127 0" result="hardAlpha"/>
<feOffset dx="-0.986667" dy="0.986667"/>
<feGaussianBlur stdDeviation="0.493333"/>
<feComposite in2="hardAlpha" operator="arithmetic" k2="-1" k3="1"/>
<feColorMatrix type="matrix" values="0 0 0 0 1 0 0 0 0 1 0 0 0 0 1 0 0 0 0.6 0"/>
<feBlend mode="normal" in2="shape" result="effect2_innerShadow_142_877"/>
<feColorMatrix in="SourceAlpha" type="matrix" values="0 0 0 0 0 0 0 0 0 0 0 0 0 0 0 0 0 0 127 0" result="hardAlpha"/>
<feOffset dx="0.986667" dy="-0.986667"/>
<feGaussianBlur stdDeviation="0.493333"/>
<feComposite in2="hardAlpha" operator="arithmetic" k2="-1" k3="1"/>
<feColorMatrix type="matrix" values="0 0 0 0 0.569882 0 0 0 0 0.214118 0 0 0 0 0.115294 0 0 0 0.6 0"/>
<feBlend mode="normal" in2="effect2_innerShadow_142_877" result="effect3_innerShadow_142_877"/>
</filter>
<filter id="filter1_bii_142_877" x="-2.36193" y="-2.23623" width="176.724" height="187.014" filterUnits="userSpaceOnUse" color-interpolation-filters="sRGB">
<feFlood flood-opacity="0" result="BackgroundImageFix"/>
<feGaussianBlur in="BackgroundImage" stdDeviation="0.944773"/>
<feComposite in2="SourceAlpha" operator="in" result="effect1_backgroundBlur_142_877"/>
<feBlend mode="normal" in="SourceGraphic" in2="effect1_backgroundBlur_142_877" result="shape"/>
<feColorMatrix in="SourceAlpha" type="matrix" values="0 0 0 0 0 0 0 0 0 0 0 0 0 0 0 0 0 0 127 0" result="hardAlpha"/>
<feOffset dx="-2.36193" dy="2.36193"/>
<feGaussianBlur stdDeviation="1.18097"/>
<feComposite in2="hardAlpha" operator="arithmetic" k2="-1" k3="1"/>
<feColorMatrix type="matrix" values="0 0 0 0 1 0 0 0 0 1 0 0 0 0 1 0 0 0 0.6 0"/>
<feBlend mode="normal" in2="shape" result="effect2_innerShadow_142_877"/>
<feColorMatrix in="SourceAlpha" type="matrix" values="0 0 0 0 0 0 0 0 0 0 0 0 0 0 0 0 0 0 127 0" result="hardAlpha"/>
<feOffset dx="2.36193" dy="-2.36193"/>
<feGaussianBlur stdDeviation="1.18097"/>
<feComposite in2="hardAlpha" operator="arithmetic" k2="-1" k3="1"/>
<feColorMatrix type="matrix" values="0 0 0 0 0.569882 0 0 0 0 0.214118 0 0 0 0 0.115294 0 0 0 0.6 0"/>
<feBlend mode="normal" in2="effect2_innerShadow_142_877" result="effect3_innerShadow_142_877"/>
</filter>
</defs>
</svg>
