<svg width="54" height="83" viewBox="0 0 54 83" fill="none" xmlns="http://www.w3.org/2000/svg">
<g clip-path="url(#clip0_23_100)">
<g filter="url(#filter0_ii_23_100)">
<path d="M0 -2H54V62.3464C54 63.3201 53.5275 64.2332 52.7326 64.7955L28.7326 81.7743C27.6943 82.5088 26.3057 82.5088 25.2674 81.7743L1.26739 64.7955C0.472525 64.2332 0 63.3201 0 62.3464V-2Z" fill="#AD4123"/>
</g>
<path d="M1 -1H53V62.3464C53 62.9955 52.685 63.6042 52.1551 63.9791L28.1551 80.9579C27.4629 81.4476 26.5371 81.4476 25.8449 80.9579L1.84493 63.9791C1.31502 63.6042 1 62.9955 1 62.3464V-1Z" stroke="#AB7F39" stroke-width="2"/>
<path d="M25.8936 54.1317C19.1565 53.7456 13.7433 50.827 10.337 45.7442C6.66048 40.2582 5.96426 33.4062 8.53545 28.014C9.38237 26.2378 10.2838 24.9536 11.7354 23.4553C12.496 22.6702 12.8916 22.3523 14.1191 21.5398C14.9286 21.004 15.7915 20.4593 16.0367 20.3293L16.4824 20.0931L16.9457 20.4611C17.5778 20.9631 18.1858 21.2347 18.6799 21.2357L19.085 21.2366L18.8325 20.7387C18.2135 19.5183 18.6923 19.2985 20.3166 20.0575C21.2638 20.5001 21.8025 20.6629 22.055 20.5827C22.2036 20.5356 22.2257 20.4761 22.1859 20.2311C22.1596 20.0689 22.0578 19.8235 21.9596 19.6856C21.7309 19.3644 21.7326 19.0562 21.9643 18.8475C22.1293 18.6989 22.2857 18.6833 23.5443 18.6906C28.173 18.7174 32.0545 20.0759 34.9215 22.6725C36.368 23.9826 38.3134 26.6628 38.7068 27.8875C38.9263 28.5707 39.1761 28.5772 39.5332 27.9091L39.6985 27.5999L39.6356 28.1194C39.601 28.4051 39.573 29.1259 39.5735 29.7211C39.5741 30.5937 39.6045 30.8619 39.7306 31.1063C40.1891 31.9951 40.1068 35.2218 39.5804 36.9944C39.5077 37.2393 39.2728 37.8224 39.0583 38.2902C38.4183 39.6865 38.4377 40.0823 39.1349 39.8522C39.3027 39.7968 39.5284 39.7795 39.6362 39.8137C39.7982 39.8652 39.7403 39.9013 39.3041 40.0207C38.3458 40.2831 37.584 40.8445 36.7155 41.9284C34.6099 44.5559 31.7157 45.982 27.7432 46.3493C26.7448 46.4416 26.548 46.4342 25.4922 46.2645C24.8558 46.1623 23.9664 45.9844 23.5156 45.8692C23.0648 45.754 22.682 45.6738 22.6649 45.6909C22.6152 45.7406 23.7332 46.3442 24.3637 46.608C25.0368 46.8896 25.9413 47.0709 26.3206 47.0003C26.5795 46.9521 26.5955 46.9692 26.9609 47.6844C27.5582 48.8538 28.3905 49.628 29.0593 49.6363C29.434 49.641 29.0608 49.7824 28.2855 49.9295C25.1746 50.5196 21.4918 49.1652 18.9603 46.5C17.6683 45.1396 16.5104 42.8254 15.8932 40.37C15.7914 39.9652 15.6877 39.5562 15.6626 39.4609C15.6376 39.3657 15.8255 39.6373 16.0802 40.0645C16.6772 41.0659 17.5728 41.9864 18.3181 42.3647C19.0677 42.7451 20.0047 42.8122 20.7774 42.5408C21.0587 42.4421 21.3976 42.3612 21.5305 42.3612C21.9223 42.3612 23.0841 41.955 23.6177 41.6313C25.4292 40.5328 27.3741 40.1785 28.6177 40.7206L29.0909 40.9268L28.6141 41.0224C27.6613 41.2132 27.0923 41.7175 26.8843 42.5553C26.8254 42.7925 26.7971 43.3325 26.8173 43.8342L26.8522 44.7026L24.8578 44.652C22.7321 44.598 22.5917 44.6375 23.8172 44.9446C24.8976 45.2154 25.7175 45.3136 26.8892 45.3123C29.7421 45.3093 31.9926 44.4064 34.2425 42.3622C36.4246 40.3796 37.7079 37.7557 38.0496 34.5783C38.1798 33.3677 37.8051 32.471 36.7859 31.5542C36.4913 31.2892 36.2717 31.0375 36.298 30.995C36.3745 30.8713 36.9467 31.0126 37.2982 31.242C37.697 31.5022 37.828 31.5109 37.7522 31.2722C37.7207 31.1729 37.6046 30.6919 37.4942 30.2033C36.464 25.6441 32.5145 22.1772 26.9653 20.9608C26.1833 20.7894 25.8253 20.7641 24.2053 20.7658C22.612 20.7674 22.2215 20.795 21.4943 20.9571C18.6094 21.6002 15.9377 23.0213 14.0004 24.9432C11.7714 27.1544 10.5058 29.414 10.0025 32.0812C9.68376 33.77 9.84775 34.0535 10.6661 33.2286C10.9325 32.9601 11.1628 32.7529 11.178 32.7682C11.1932 32.7834 11.0949 33.1905 10.9595 33.6728C10.5501 35.1312 10.4145 36.1562 10.4597 37.4504C10.4955 38.4742 10.5291 38.6729 10.778 39.3311C12.5457 44.0059 16.0219 47.4712 20.7888 49.3103C22.7939 50.0839 25.7832 50.4616 28.2199 50.2493C31.7349 49.943 34.6403 48.7498 37.1865 46.5672C38.4032 45.5241 39.5657 44.0971 40.6084 42.3665C41.5401 40.8201 42.0855 39.3625 42.4405 37.4697C42.6933 36.1214 42.6707 33.2167 42.3973 31.9331C41.8435 29.3328 40.6896 27.0471 38.8111 24.8295C37.5953 23.3941 35.0946 21.5957 33.1134 20.7319L32.4652 20.4493L32.1985 19.6525C32.0518 19.2142 31.7924 18.4758 31.6219 18.0116C31.4515 17.5473 31.3244 17.1674 31.3394 17.1674C31.3545 17.1674 31.6681 17.3066 32.0364 17.4768C32.4047 17.647 32.7264 17.7657 32.7514 17.7407C32.8947 17.5974 31.5342 15.5467 30.67 14.6032L30.1652 14.0522L30.4535 14.1065C30.9971 14.2088 32.7632 14.7355 33.6139 15.049C34.73 15.4603 37.0332 16.5904 38.0143 17.2082C40.0034 18.4606 42.1846 20.3933 43.4401 22.0157C45.7031 24.9403 46.9955 28.0928 47.5929 32.1452C48.3135 37.0338 46.8273 42.274 43.6396 46.084C42.7367 47.1633 40.6692 49.1229 39.7458 49.7748C36.8742 51.8021 33.6343 53.163 30.0925 53.8296C29.3542 53.9686 27.2693 54.2336 27.1062 54.2092C27.0582 54.2021 26.5126 54.1672 25.8936 54.1317V54.1317ZM21.7198 25.4137C21.3419 24.8546 21.0927 24.2777 21.0904 23.9567C21.0891 23.7614 21.0302 23.6587 20.8706 23.5733C20.7508 23.5092 20.5591 23.3339 20.4447 23.1839C20.2442 22.9212 19.6945 21.9091 19.7319 21.8717C19.742 21.8616 20.0554 22.0068 20.4285 22.1943C21.1635 22.5637 21.6139 22.6253 21.935 22.4004C22.0409 22.3263 22.1275 22.1898 22.1275 22.097C22.1275 21.9866 22.3692 21.7492 22.8276 21.4093C23.5167 20.8984 23.5367 20.8902 24.0975 20.8902C24.4109 20.8902 24.9125 20.9329 25.2123 20.9851C25.6444 21.0604 25.7693 21.1179 25.8153 21.2627C25.852 21.3782 25.8323 21.459 25.7617 21.4825C25.7004 21.5029 25.442 21.6292 25.1875 21.7631C23.4334 22.6858 22.2877 24.0376 22.1529 25.3437C22.1256 25.6085 22.0795 25.825 22.0504 25.8249C22.0214 25.8249 21.8726 25.6398 21.7198 25.4137V25.4137ZM17.8729 20.716C17.6995 20.6244 17.3684 20.3388 17.137 20.0813C16.7397 19.6391 16.6898 19.6111 16.2356 19.575C15.9711 19.554 15.57 19.4475 15.3443 19.3382C14.9331 19.1391 13.9893 18.4228 13.9893 18.3098C13.9893 18.2767 14.2612 18.2496 14.5936 18.2496C15.1607 18.2496 15.2155 18.2322 15.4807 17.9669L15.7635 17.6842L15.5339 17.4907C15.4076 17.3843 15.2548 17.1999 15.1943 17.0809C15.079 16.8536 14.9377 16.2151 15.0027 16.2151C15.0236 16.2151 15.2034 16.3097 15.4024 16.4252C15.8675 16.6954 16.75 16.8533 17.3927 16.7812C17.881 16.7264 19.1747 16.4263 19.2509 16.3501C19.2716 16.3293 19.1532 16.1934 18.9877 16.0481C18.6837 15.7812 18.0584 14.7055 18.0584 14.4494C18.0584 14.345 18.1643 14.3868 18.487 14.6186C18.9679 14.9641 19.7351 15.2627 20.1417 15.2627H20.4113L20.1939 15.0044C19.9727 14.7415 19.6167 13.901 19.6167 13.6416C19.6167 13.5282 19.6657 13.5445 19.8548 13.721C21.1181 14.8999 23.203 15.1581 24.9645 14.3536C26.0602 13.8532 27.7179 12.4487 28.3892 11.4519L28.6935 11L28.7865 11.3349C28.9746 12.0124 28.8738 12.5192 28.4637 12.9571L28.2311 13.2055L28.4476 13.1415C28.9404 12.9959 29.2085 12.846 29.3965 12.611L29.5954 12.3624L29.5528 13.1456C29.5248 13.6603 29.4511 14.0624 29.3377 14.3188L29.1651 14.7089L29.7591 14.8024C30.0858 14.8539 30.412 14.9449 30.4841 15.0046C30.59 15.0925 31.5399 16.4177 31.7596 16.7841C31.7902 16.8351 31.6233 16.7819 31.3888 16.6658C31.0672 16.5067 30.888 16.4687 30.6599 16.5115L30.3575 16.5683L30.648 16.9761C31.0583 17.5521 31.5258 18.5162 31.8214 19.3961C31.9606 19.8103 32.0612 20.1625 32.0449 20.1788C32.0286 20.1951 31.6668 20.0334 31.2408 19.8195C30.1849 19.2892 28.8869 18.8503 27.5868 18.5839C26.704 18.4031 26.231 18.3589 25.0711 18.3487C23.5749 18.3356 22.1058 18.4105 21.8429 18.5132C21.6298 18.5965 21.4683 18.9387 21.3563 19.5443C21.3043 19.8259 21.2617 20.0681 21.2617 20.0826C21.2617 20.097 21.0377 20.0073 20.7639 19.8833C19.0669 19.1143 18.4766 18.9483 18.2488 19.176C18.0933 19.3316 18.1235 19.9662 18.3098 20.4564C18.4597 20.8509 18.4616 20.8899 18.3314 20.8864C18.2527 20.8843 18.0463 20.8076 17.8729 20.716V20.716ZM24.6822 16.9194C24.8731 16.8327 25.1517 16.6223 25.3014 16.4518C25.5593 16.158 25.6103 16.1387 26.2803 16.0802C26.669 16.0463 26.9553 15.988 26.9165 15.9507C26.8073 15.8457 25.8734 15.6956 25.3288 15.6956C24.786 15.6956 23.6782 15.9519 23.2389 16.1791L22.955 16.3259L23.3256 16.6548C23.6474 16.9404 23.8008 17.0087 24.2486 17.066C24.2962 17.0721 24.4913 17.0061 24.6822 16.9194V16.9194Z" fill="#F4D1C8"/>
</g>
<defs>
<filter id="filter0_ii_23_100" x="0" y="-8" width="54" height="96.3252" filterUnits="userSpaceOnUse" color-interpolation-filters="sRGB">
<feFlood flood-opacity="0" result="BackgroundImageFix"/>
<feBlend mode="normal" in="SourceGraphic" in2="BackgroundImageFix" result="shape"/>
<feColorMatrix in="SourceAlpha" type="matrix" values="0 0 0 0 0 0 0 0 0 0 0 0 0 0 0 0 0 0 127 0" result="hardAlpha"/>
<feOffset dy="-6"/>
<feGaussianBlur stdDeviation="6"/>
<feComposite in2="hardAlpha" operator="arithmetic" k2="-1" k3="1"/>
<feColorMatrix type="matrix" values="0 0 0 0 0 0 0 0 0 0 0 0 0 0 0 0 0 0 0.3 0"/>
<feBlend mode="normal" in2="shape" result="effect1_innerShadow_23_100"/>
<feColorMatrix in="SourceAlpha" type="matrix" values="0 0 0 0 0 0 0 0 0 0 0 0 0 0 0 0 0 0 127 0" result="hardAlpha"/>
<feOffset dy="6"/>
<feGaussianBlur stdDeviation="6"/>
<feComposite in2="hardAlpha" operator="arithmetic" k2="-1" k3="1"/>
<feColorMatrix type="matrix" values="0 0 0 0 1 0 0 0 0 1 0 0 0 0 1 0 0 0 0.3 0"/>
<feBlend mode="normal" in2="effect1_innerShadow_23_100" result="effect2_innerShadow_23_100"/>
</filter>
<clipPath id="clip0_23_100">
<rect width="54" height="83" fill="white"/>
</clipPath>
</defs>
</svg>
